<svg xmlns="http://www.w3.org/2000/svg" xmlns:xlink="http://www.w3.org/1999/xlink" width="200" zoomAndPan="magnify" viewBox="0 0 150 74.999997" height="100" preserveAspectRatio="xMidYMid meet" version="1.0"><defs><clipPath id="48ecc5e02d"><path d="M 45.628906 9.785156 L 104.128906 9.785156 L 104.128906 65.277344 L 45.628906 65.277344 Z M 45.628906 9.785156 " clip-rule="nonzero"/></clipPath><clipPath id="bb0773f3dc"><path d="M 75 34.273438 L 80.074219 34.273438 L 80.074219 39.101562 L 75 39.101562 Z M 75 34.273438 " clip-rule="nonzero"/></clipPath><clipPath id="1d052b2382"><path d="M 77.53125 34.273438 L 78.128906 36.121094 L 80.066406 36.121094 L 78.5 37.257812 L 79.097656 39.101562 L 77.53125 37.964844 L 75.96875 39.101562 L 76.566406 37.257812 L 75 36.121094 L 76.933594 36.121094 Z M 77.53125 34.273438 " clip-rule="nonzero"/></clipPath></defs><rect x="-15" width="180" fill="#ffffff" y="-7.5" height="89.999996" fill-opacity="1"/><rect x="-15" width="180" fill="#ffffff" y="-7.5" height="89.999996" fill-opacity="1"/><g clip-path="url(#48ecc5e02d)"><path fill="#ffffff" d="M 59.820312 65.21875 C 59.46875 65.21875 59.140625 65.144531 58.847656 64.988281 C 58.332031 64.722656 57.929688 64.289062 57.613281 63.933594 C 57.558594 63.867188 57.5 63.808594 57.453125 63.757812 C 54.414062 60.515625 53.191406 55.773438 54.292969 51.585938 C 54.121094 50.28125 54.746094 49.046875 55.8125 48.398438 C 55.703125 47.214844 55.703125 45.898438 55.808594 44.339844 C 55.855469 43.664062 55.914062 43.027344 55.980469 42.414062 C 53.378906 42.792969 50.699219 43.183594 48.140625 43.835938 C 48.007812 43.867188 47.878906 43.882812 47.75 43.882812 C 47.53125 43.882812 47.324219 43.839844 47.128906 43.75 C 46.699219 43.582031 46.378906 43.214844 46.25 42.757812 L 46.222656 42.648438 C 46.007812 41.855469 45.78125 41.039062 45.699219 40.171875 C 45.640625 39.558594 45.9375 38.996094 46.453125 38.714844 C 47.988281 37.542969 49.554688 36.347656 51.058594 35.1875 C 56.449219 31.046875 62.015625 26.773438 67.773438 22.898438 C 67.8125 22.230469 68.058594 21.613281 68.488281 21.074219 C 68.96875 20.472656 69.660156 20.144531 70.4375 20.144531 C 70.894531 20.144531 71.355469 20.261719 71.789062 20.480469 C 76.191406 18.125 80.851562 16.648438 85.632812 15.230469 C 87.554688 14.660156 89.480469 13.9375 91.339844 13.246094 C 91.953125 13.015625 92.570312 12.789062 93.179688 12.566406 C 95.90625 11.566406 98.378906 10.691406 100.734375 9.894531 C 100.925781 9.816406 101.117188 9.777344 101.320312 9.777344 C 101.367188 9.777344 101.414062 9.777344 101.464844 9.78125 C 101.621094 9.796875 101.777344 9.835938 101.921875 9.894531 C 102.222656 10 102.488281 10.199219 102.679688 10.464844 L 103.910156 12.164062 C 104.351562 12.773438 104.292969 13.570312 103.773438 14.089844 C 103.679688 14.199219 103.570312 14.289062 103.453125 14.363281 C 99.988281 16.589844 96.835938 18.703125 93.808594 20.832031 C 93.292969 21.199219 92.75 21.582031 92.1875 21.992188 C 94.308594 23.40625 96.253906 25.066406 97.984375 26.9375 C 98.277344 27.257812 98.421875 27.65625 98.398438 28.070312 C 98.398438 28.125 98.394531 28.203125 98.378906 28.292969 C 97.855469 31.675781 97.105469 34.320312 96.011719 36.617188 C 94.847656 39.054688 93.1875 41.066406 91.070312 42.597656 C 88.558594 44.421875 85.640625 45.597656 83.660156 46.320312 C 78.808594 48.074219 73.46875 48.980469 67.777344 48.980469 C 67.371094 48.980469 66.957031 48.972656 66.546875 48.964844 C 66.105469 48.953125 65.699219 48.761719 65.414062 48.441406 C 65.378906 48.398438 65.332031 48.347656 65.28125 48.28125 C 64.777344 47.570312 64.320312 46.808594 63.914062 46.015625 C 63.878906 45.953125 63.847656 45.890625 63.8125 45.820312 C 63.503906 45.191406 63.230469 44.542969 62.996094 43.882812 C 62.949219 43.777344 62.90625 43.671875 62.878906 43.554688 C 62.640625 42.847656 62.449219 42.125 62.292969 41.382812 C 61.882812 41.46875 61.449219 41.546875 60.984375 41.632812 C 60.761719 42.75 60.601562 43.921875 60.503906 45.128906 C 60.421875 46.191406 60.347656 47.542969 60.464844 48.894531 C 61.03125 49.207031 61.496094 49.675781 61.789062 50.234375 C 62.082031 50.804688 62.1875 51.433594 62.101562 52.054688 C 62.734375 53.132812 63.632812 54.128906 64.511719 55.097656 L 64.523438 55.105469 C 64.734375 55.339844 64.980469 55.574219 65.234375 55.824219 C 65.722656 56.296875 66.222656 56.789062 66.632812 57.375 C 66.898438 57.757812 66.96875 58.21875 66.847656 58.648438 C 66.503906 60.78125 65.414062 62.613281 63.765625 63.796875 C 62.867188 64.449219 61.789062 64.898438 60.65625 65.101562 L 60.554688 65.125 C 60.347656 65.171875 60.101562 65.21875 59.820312 65.21875 Z M 59.820312 65.21875 " fill-opacity="1" fill-rule="nonzero"/></g><path fill="#1d2c54" d="M 102.921875 13.289062 C 102.894531 13.320312 102.863281 13.351562 102.824219 13.378906 C 99.554688 15.480469 96.320312 17.640625 93.144531 19.875 C 92.128906 20.585938 91.121094 21.316406 90.121094 22.042969 C 92.722656 23.585938 95.082031 25.484375 97.132812 27.707031 C 97.222656 27.804688 97.25 27.910156 97.238281 28.015625 C 97.238281 28.042969 97.238281 28.070312 97.234375 28.101562 C 96.8125 30.851562 96.164062 33.589844 94.964844 36.105469 C 93.90625 38.324219 92.378906 40.203125 90.382812 41.648438 C 88.238281 43.207031 85.738281 44.316406 83.253906 45.21875 C 77.925781 47.171875 72.234375 47.9375 66.574219 47.808594 C 66.441406 47.804688 66.339844 47.75 66.277344 47.664062 C 66.261719 47.648438 66.246094 47.628906 66.230469 47.605469 C 65.738281 46.914062 65.308594 46.191406 64.929688 45.441406 C 64.910156 45.410156 64.894531 45.378906 64.878906 45.339844 C 64.570312 44.714844 64.296875 44.070312 64.0625 43.414062 C 64.03125 43.367188 64.015625 43.308594 64.003906 43.257812 C 63.644531 42.203125 63.390625 41.113281 63.234375 39.996094 C 62.171875 40.238281 61.097656 40.449219 60.023438 40.632812 C 59.691406 42.085938 59.472656 43.566406 59.355469 45.039062 C 59.234375 46.574219 59.179688 48.164062 59.394531 49.703125 C 59.421875 49.707031 59.449219 49.714844 59.472656 49.71875 C 60.570312 50.054688 61.238281 51.132812 60.882812 52.230469 C 61.585938 53.585938 62.65625 54.765625 63.671875 55.890625 C 64.3125 56.597656 65.144531 57.257812 65.691406 58.042969 C 65.765625 58.15625 65.773438 58.277344 65.722656 58.382812 C 65.464844 60.171875 64.570312 61.808594 63.089844 62.875 C 62.3125 63.4375 61.394531 63.808594 60.453125 63.980469 C 60.074219 64.046875 59.707031 64.140625 59.367188 63.96875 C 58.96875 63.761719 58.589844 63.296875 58.289062 62.972656 C 55.515625 60.015625 54.339844 55.558594 55.472656 51.648438 C 55.464844 51.617188 55.457031 51.585938 55.453125 51.546875 C 55.253906 50.441406 55.96875 49.375 57.0625 49.140625 C 56.832031 47.585938 56.851562 45.984375 56.957031 44.433594 C 57.03125 43.347656 57.144531 42.207031 57.324219 41.066406 C 54.15625 41.53125 50.96875 41.9375 47.851562 42.730469 C 47.75 42.757812 47.660156 42.738281 47.585938 42.703125 C 47.484375 42.664062 47.398438 42.582031 47.355469 42.449219 C 47.144531 41.664062 46.921875 40.867188 46.839844 40.066406 C 46.824219 39.878906 46.921875 39.761719 47.046875 39.707031 C 47.046875 39.707031 47.054688 39.707031 47.054688 39.703125 C 54.28125 34.214844 61.390625 28.546875 68.941406 23.507812 C 68.851562 22.921875 68.964844 22.324219 69.382812 21.804688 C 69.96875 21.074219 70.953125 21.21875 71.628906 21.746094 C 71.664062 21.773438 71.703125 21.804688 71.734375 21.835938 C 71.761719 21.808594 71.789062 21.789062 71.824219 21.765625 C 76.273438 19.304688 81.105469 17.773438 85.953125 16.332031 C 88.539062 15.566406 91.042969 14.566406 93.570312 13.640625 C 96.085938 12.71875 98.605469 11.820312 101.144531 10.964844 C 101.214844 10.933594 101.28125 10.914062 101.347656 10.925781 C 101.398438 10.933594 101.453125 10.949219 101.488281 10.96875 C 101.582031 10.992188 101.664062 11.039062 101.730469 11.128906 C 102.140625 11.699219 102.546875 12.261719 102.957031 12.832031 C 103.097656 13.007812 103.042969 13.175781 102.921875 13.289062 Z M 102.921875 13.289062 " fill-opacity="1" fill-rule="nonzero"/><path fill="#ff004d" d="M 102.964844 12.824219 C 102.554688 12.257812 102.144531 11.691406 101.734375 11.125 C 101.671875 11.03125 101.585938 10.980469 101.496094 10.964844 C 101.453125 10.9375 101.40625 10.921875 101.351562 10.921875 C 101.289062 10.910156 101.21875 10.925781 101.148438 10.957031 C 98.613281 11.816406 96.089844 12.714844 93.574219 13.632812 C 91.046875 14.558594 88.539062 15.558594 85.957031 16.324219 C 81.113281 17.765625 76.277344 19.304688 71.832031 21.761719 C 71.792969 21.78125 71.765625 21.804688 71.738281 21.832031 C 71.703125 21.796875 71.671875 21.765625 71.632812 21.742188 C 70.957031 21.214844 69.980469 21.066406 69.390625 21.796875 C 68.96875 22.320312 68.855469 22.914062 68.949219 23.5 C 61.394531 28.542969 54.289062 34.207031 47.058594 39.699219 C 47.058594 39.699219 47.054688 39.699219 47.054688 39.703125 C 46.925781 39.75 46.824219 39.867188 46.847656 40.058594 C 46.925781 40.867188 47.148438 41.664062 47.363281 42.441406 C 47.398438 42.582031 47.484375 42.660156 47.589844 42.699219 C 47.664062 42.734375 47.757812 42.746094 47.855469 42.722656 C 50.96875 41.933594 54.15625 41.527344 57.332031 41.058594 C 57.15625 42.203125 57.042969 43.339844 56.964844 44.425781 C 56.855469 45.980469 56.835938 47.582031 57.070312 49.132812 C 55.980469 49.367188 55.261719 50.4375 55.457031 51.542969 C 55.464844 51.574219 55.472656 51.613281 55.480469 51.644531 C 54.347656 55.554688 55.523438 60.011719 58.292969 62.96875 C 58.597656 63.292969 58.96875 63.757812 59.371094 63.964844 C 59.714844 64.140625 60.082031 64.042969 60.457031 63.972656 C 61.398438 63.804688 62.320312 63.433594 63.097656 62.867188 C 64.574219 61.804688 65.464844 60.164062 65.730469 58.378906 C 65.777344 58.273438 65.773438 58.148438 65.699219 58.039062 C 65.148438 57.25 64.3125 56.589844 63.675781 55.882812 C 62.660156 54.761719 61.589844 53.582031 60.890625 52.222656 C 61.246094 51.128906 60.574219 50.046875 59.480469 49.714844 C 59.453125 49.703125 59.425781 49.703125 59.398438 49.699219 C 59.1875 48.15625 59.238281 46.566406 59.363281 45.03125 C 59.480469 43.554688 59.691406 42.074219 60.027344 40.628906 C 61.101562 40.441406 62.175781 40.238281 63.238281 39.988281 C 63.394531 41.105469 63.648438 42.199219 64.011719 43.25 C 64.023438 43.308594 64.039062 43.363281 64.070312 43.410156 C 64.296875 44.070312 64.570312 44.714844 64.882812 45.335938 C 64.894531 45.375 64.914062 45.40625 64.9375 45.4375 C 65.3125 46.1875 65.746094 46.910156 66.234375 47.601562 C 66.25 47.625 66.265625 47.644531 66.28125 47.660156 C 66.347656 47.738281 66.441406 47.796875 66.582031 47.804688 C 72.238281 47.933594 77.9375 47.164062 83.265625 45.214844 C 85.75 44.304688 88.246094 43.203125 90.394531 41.644531 C 92.390625 40.199219 93.910156 38.320312 94.972656 36.101562 C 96.175781 33.582031 96.820312 30.839844 97.246094 28.097656 C 97.25 28.070312 97.25 28.039062 97.25 28.011719 C 97.261719 27.910156 97.230469 27.796875 97.144531 27.703125 C 95.089844 25.484375 92.734375 23.582031 90.132812 22.039062 C 91.132812 21.304688 92.140625 20.582031 93.15625 19.867188 C 96.335938 17.632812 99.570312 15.472656 102.835938 13.375 C 102.878906 13.347656 102.910156 13.316406 102.929688 13.28125 C 103.042969 13.175781 103.097656 13.007812 102.964844 12.824219 Z M 57.46875 40.238281 C 57.441406 40.238281 57.421875 40.238281 57.394531 40.246094 C 54.261719 40.714844 51.113281 41.101562 48.03125 41.851562 C 47.894531 41.363281 47.761719 40.863281 47.6875 40.363281 C 51.007812 39.554688 54.410156 39.234375 57.789062 38.746094 C 57.664062 39.238281 57.558594 39.738281 57.46875 40.238281 Z M 69.839844 22.628906 C 70.289062 21.660156 71.265625 22.347656 71.660156 22.992188 C 71.984375 23.515625 72.121094 24.140625 72.261719 24.734375 C 72.15625 25.132812 71.792969 25.410156 71.371094 25.378906 C 71.347656 25.375 71.324219 25.378906 71.304688 25.378906 C 70.367188 24.949219 69.351562 23.691406 69.839844 22.628906 Z M 94.894531 26.601562 C 95.421875 27.089844 95.925781 27.597656 96.421875 28.125 C 95.699219 32.699219 94.292969 37.488281 90.554688 40.511719 C 88.472656 42.191406 85.941406 43.347656 83.453125 44.289062 C 80.964844 45.230469 78.378906 45.921875 75.753906 46.367188 C 72.792969 46.878906 69.789062 47.058594 66.78125 47.007812 C 66.46875 46.546875 66.179688 46.082031 65.910156 45.597656 C 71.199219 45.554688 76.484375 44.71875 81.441406 42.839844 C 83.910156 41.90625 86.382812 40.78125 88.488281 39.175781 C 90.363281 37.746094 91.789062 35.90625 92.789062 33.777344 C 93.855469 31.511719 94.480469 29.070312 94.894531 26.601562 Z M 92.117188 24.320312 C 91.394531 28.613281 90.042969 33.089844 86.632812 36.015625 C 84.75 37.628906 82.453125 38.75 80.171875 39.683594 C 77.882812 40.617188 75.511719 41.335938 73.089844 41.839844 C 70.324219 42.421875 67.511719 42.707031 64.6875 42.777344 C 64.371094 41.816406 64.144531 40.824219 64.015625 39.808594 C 65.730469 39.378906 67.40625 38.824219 69 38.054688 C 71.851562 36.683594 74.308594 34.65625 76.714844 32.628906 C 80.847656 29.144531 85.070312 25.765625 89.414062 22.558594 C 90.351562 23.101562 91.25 23.6875 92.117188 24.320312 Z M 85.78125 24.28125 C 83.105469 26.335938 80.472656 28.441406 77.882812 30.601562 C 75.382812 32.6875 72.949219 34.894531 70.121094 36.542969 C 67.082031 38.324219 63.671875 39.164062 60.230469 39.78125 C 60.363281 39.265625 60.511719 38.761719 60.679688 38.261719 L 60.679688 38.257812 C 63.527344 37.675781 66.324219 36.761719 68.839844 35.277344 C 71.53125 33.6875 73.882812 31.589844 76.253906 29.574219 C 81.230469 25.347656 86.53125 21.539062 91.953125 17.90625 C 95.03125 15.839844 98.144531 13.835938 101.261719 11.835938 C 101.523438 12.199219 101.789062 12.558594 102.046875 12.925781 C 96.484375 16.507812 91.03125 20.261719 85.78125 24.28125 Z M 85.78125 24.28125 " fill-opacity="1" fill-rule="nonzero"/><path fill="#1d2c54" d="M 102.964844 12.824219 C 102.554688 12.257812 102.144531 11.691406 101.734375 11.125 C 101.671875 11.03125 101.585938 10.980469 101.496094 10.964844 C 101.453125 10.9375 101.40625 10.921875 101.351562 10.921875 C 101.289062 10.910156 101.21875 10.925781 101.148438 10.957031 C 98.613281 11.816406 96.089844 12.714844 93.574219 13.632812 C 91.046875 14.558594 88.539062 15.558594 85.957031 16.324219 C 81.113281 17.765625 76.277344 19.304688 71.832031 21.761719 C 71.792969 21.78125 71.765625 21.804688 71.738281 21.832031 C 71.703125 21.796875 71.671875 21.765625 71.632812 21.742188 C 70.957031 21.214844 69.980469 21.066406 69.390625 21.796875 C 68.96875 22.320312 68.855469 22.914062 68.949219 23.5 C 61.394531 28.542969 54.289062 34.207031 47.058594 39.699219 C 47.058594 39.699219 47.054688 39.699219 47.054688 39.703125 C 46.925781 39.75 46.824219 39.867188 46.847656 40.058594 C 46.925781 40.867188 47.148438 41.664062 47.363281 42.441406 C 47.398438 42.582031 47.484375 42.660156 47.589844 42.699219 C 47.664062 42.734375 47.757812 42.746094 47.855469 42.722656 C 50.96875 41.933594 54.15625 41.527344 57.332031 41.058594 C 57.15625 42.203125 57.042969 43.339844 56.964844 44.425781 C 56.855469 45.980469 56.835938 47.582031 57.070312 49.132812 C 55.980469 49.367188 55.261719 50.4375 55.457031 51.542969 C 55.464844 51.574219 55.472656 51.613281 55.480469 51.644531 C 54.347656 55.554688 55.523438 60.011719 58.292969 62.96875 C 58.597656 63.292969 58.96875 63.757812 59.371094 63.964844 C 59.714844 64.140625 60.082031 64.042969 60.457031 63.972656 C 61.398438 63.804688 62.320312 63.433594 63.097656 62.867188 C 64.574219 61.804688 65.464844 60.164062 65.730469 58.378906 C 65.777344 58.273438 65.773438 58.148438 65.699219 58.039062 C 65.148438 57.25 64.3125 56.589844 63.675781 55.882812 C 62.660156 54.761719 61.589844 53.582031 60.890625 52.222656 C 61.246094 51.128906 60.574219 50.046875 59.480469 49.714844 C 59.453125 49.703125 59.425781 49.703125 59.398438 49.699219 C 59.1875 48.15625 59.238281 46.566406 59.363281 45.03125 C 59.480469 43.554688 59.691406 42.074219 60.027344 40.628906 C 61.101562 40.441406 62.175781 40.238281 63.238281 39.988281 C 63.394531 41.105469 63.648438 42.199219 64.011719 43.25 C 64.023438 43.308594 64.039062 43.363281 64.070312 43.410156 C 64.296875 44.070312 64.570312 44.714844 64.882812 45.335938 C 64.894531 45.375 64.914062 45.40625 64.9375 45.4375 C 65.3125 46.1875 65.746094 46.910156 66.234375 47.601562 C 66.25 47.625 66.265625 47.644531 66.28125 47.660156 C 66.347656 47.738281 66.441406 47.796875 66.582031 47.804688 C 72.238281 47.933594 77.9375 47.164062 83.265625 45.214844 C 85.75 44.304688 88.246094 43.203125 90.394531 41.644531 C 92.390625 40.199219 93.910156 38.320312 94.972656 36.101562 C 96.175781 33.582031 96.820312 30.839844 97.246094 28.097656 C 97.25 28.070312 97.25 28.039062 97.25 28.011719 C 97.261719 27.910156 97.230469 27.796875 97.144531 27.703125 C 95.089844 25.484375 92.734375 23.582031 90.132812 22.039062 C 91.132812 21.304688 92.140625 20.582031 93.15625 19.867188 C 96.335938 17.632812 99.570312 15.472656 102.835938 13.375 C 102.878906 13.347656 102.910156 13.316406 102.929688 13.28125 C 103.042969 13.175781 103.097656 13.007812 102.964844 12.824219 Z M 69.839844 22.628906 C 70.289062 21.660156 71.265625 22.347656 71.660156 22.992188 C 71.984375 23.515625 72.121094 24.140625 72.261719 24.734375 C 72.15625 25.132812 71.792969 25.410156 71.371094 25.378906 C 71.347656 25.375 71.324219 25.378906 71.304688 25.378906 C 70.367188 24.949219 69.351562 23.691406 69.839844 22.628906 Z M 48.03125 41.851562 C 47.894531 41.363281 47.761719 40.863281 47.6875 40.363281 C 51.007812 39.554688 54.410156 39.234375 57.789062 38.746094 C 57.664062 39.238281 57.558594 39.738281 57.464844 40.238281 C 57.4375 40.238281 57.414062 40.238281 57.390625 40.246094 C 54.261719 40.707031 51.113281 41.097656 48.03125 41.851562 Z M 60.398438 53.015625 C 61.0625 54.164062 61.980469 55.191406 62.851562 56.171875 C 63.335938 56.71875 63.835938 57.25 64.339844 57.777344 C 64.496094 57.9375 64.65625 58.097656 64.808594 58.257812 C 64.824219 58.273438 64.871094 58.324219 64.921875 58.378906 C 64.761719 59.289062 64.4375 60.148438 63.925781 60.898438 C 63.910156 60.875 63.890625 60.839844 63.863281 60.816406 C 62.246094 59.164062 61.128906 57.160156 60.570312 54.921875 C 60.441406 54.421875 59.671875 54.632812 59.796875 55.132812 C 60.390625 57.5 61.589844 59.640625 63.296875 61.382812 C 63.351562 61.4375 63.40625 61.46875 63.464844 61.484375 C 63.234375 61.734375 62.980469 61.96875 62.699219 62.175781 C 62.355469 62.425781 61.984375 62.632812 61.601562 62.796875 C 60.746094 61.941406 60.039062 60.980469 59.464844 59.914062 C 59.21875 59.464844 58.527344 59.867188 58.773438 60.320312 C 59.3125 61.332031 59.984375 62.257812 60.765625 63.085938 C 60.671875 63.113281 60.574219 63.132812 60.472656 63.15625 C 59.832031 63.292969 59.71875 63.230469 59.265625 62.796875 C 58.964844 62.511719 58.679688 62.207031 58.421875 61.882812 C 56.363281 59.378906 55.4375 55.925781 56.046875 52.738281 C 56.40625 53.144531 56.878906 53.4375 57.40625 53.589844 C 57.324219 54.28125 57.3125 54.96875 57.378906 55.660156 C 57.425781 56.171875 58.230469 56.175781 58.179688 55.660156 C 58.121094 55.011719 58.128906 54.367188 58.199219 53.722656 C 58.972656 53.765625 59.839844 53.566406 60.398438 53.015625 Z M 59.621094 51.238281 C 59.65625 51.164062 59.664062 51.082031 59.640625 50.984375 C 59.613281 50.863281 59.582031 50.738281 59.554688 50.617188 C 60.0625 50.910156 60.292969 51.484375 60.105469 52 C 60.082031 52.042969 60.058594 52.085938 60.046875 52.132812 C 59.980469 52.273438 59.871094 52.398438 59.738281 52.515625 C 59.238281 52.941406 58.40625 53.011719 57.777344 52.863281 C 57.117188 52.707031 56.511719 52.277344 56.296875 51.605469 C 56.054688 50.847656 56.46875 50.113281 57.214844 49.910156 C 57.238281 50.027344 57.265625 50.140625 57.292969 50.257812 C 57.53125 51.144531 58.449219 51.382812 59.25 51.480469 C 59.464844 51.523438 59.585938 51.394531 59.621094 51.238281 Z M 59.722656 38.625 C 59.105469 40.671875 58.738281 42.804688 58.5625 44.933594 C 58.410156 46.796875 58.367188 48.746094 58.730469 50.601562 C 58.425781 50.515625 58.144531 50.367188 58.058594 50.058594 C 57.234375 46.699219 57.714844 42.847656 58.488281 39.523438 C 58.878906 37.847656 59.398438 36.148438 60.277344 34.660156 C 61.335938 32.867188 63.132812 31.472656 64.820312 30.304688 C 66.964844 28.816406 69.28125 27.589844 71.515625 26.242188 C 71.558594 26.230469 71.597656 26.207031 71.628906 26.175781 C 72.3125 26.101562 72.957031 25.539062 73.054688 24.847656 C 73.054688 24.835938 73.054688 24.824219 73.058594 24.816406 C 73.070312 24.757812 73.070312 24.699219 73.054688 24.632812 C 73.054688 24.625 73.046875 24.613281 73.046875 24.605469 C 73.277344 24.699219 73.496094 24.835938 73.660156 25.023438 C 74 25.40625 73.753906 25.78125 73.429688 26.101562 C 72.953125 26.570312 72.339844 26.890625 71.773438 27.21875 C 70.582031 27.910156 69.371094 28.566406 68.1875 29.257812 C 65.9375 30.566406 63.6875 32.03125 61.984375 34.03125 C 60.871094 35.339844 60.21875 36.996094 59.722656 38.625 Z M 96.421875 28.125 C 95.699219 32.699219 94.292969 37.488281 90.554688 40.511719 C 88.472656 42.191406 85.941406 43.347656 83.453125 44.289062 C 80.964844 45.230469 78.378906 45.921875 75.753906 46.367188 C 72.792969 46.878906 69.789062 47.058594 66.78125 47.007812 C 66.46875 46.546875 66.179688 46.082031 65.910156 45.597656 C 71.199219 45.554688 76.484375 44.71875 81.441406 42.839844 C 83.910156 41.90625 86.382812 40.78125 88.488281 39.175781 C 90.363281 37.746094 91.789062 35.90625 92.789062 33.777344 C 93.851562 31.507812 94.472656 29.066406 94.890625 26.601562 C 95.421875 27.089844 95.925781 27.597656 96.421875 28.125 Z M 94.1875 25.96875 C 93.472656 30.421875 92.117188 35.113281 88.539062 38.117188 C 86.5625 39.773438 84.148438 40.914062 81.773438 41.855469 C 79.339844 42.820312 76.820312 43.539062 74.25 44.023438 C 71.363281 44.566406 68.429688 44.796875 65.5 44.796875 C 65.304688 44.394531 65.128906 43.988281 64.96875 43.570312 C 70.097656 43.421875 75.203125 42.511719 79.980469 40.625 C 82.296875 39.703125 84.605469 38.617188 86.589844 37.085938 C 88.398438 35.6875 89.773438 33.890625 90.75 31.832031 C 91.792969 29.628906 92.414062 27.261719 92.835938 24.863281 C 93.296875 25.21875 93.75 25.585938 94.1875 25.96875 Z M 92.117188 24.320312 C 91.394531 28.613281 90.042969 33.089844 86.632812 36.015625 C 84.75 37.628906 82.453125 38.75 80.171875 39.683594 C 77.882812 40.617188 75.511719 41.335938 73.089844 41.839844 C 70.324219 42.421875 67.511719 42.707031 64.6875 42.777344 C 64.371094 41.816406 64.144531 40.824219 64.015625 39.808594 C 65.730469 39.378906 67.40625 38.824219 69 38.054688 C 71.851562 36.683594 74.308594 34.65625 76.714844 32.628906 C 80.847656 29.144531 85.070312 25.765625 89.414062 22.558594 C 90.351562 23.101562 91.25 23.6875 92.117188 24.320312 Z M 85.78125 24.28125 C 83.105469 26.335938 80.472656 28.441406 77.882812 30.601562 C 75.382812 32.6875 72.949219 34.894531 70.121094 36.542969 C 67.082031 38.324219 63.671875 39.164062 60.230469 39.78125 C 60.363281 39.265625 60.511719 38.761719 60.679688 38.261719 L 60.679688 38.257812 C 63.527344 37.675781 66.324219 36.761719 68.839844 35.277344 C 71.53125 33.6875 73.882812 31.589844 76.253906 29.574219 C 81.230469 25.347656 86.53125 21.539062 91.953125 17.90625 C 95.03125 15.839844 98.144531 13.835938 101.261719 11.835938 C 101.523438 12.199219 101.789062 12.558594 102.046875 12.925781 C 96.484375 16.507812 91.03125 20.261719 85.78125 24.28125 Z M 85.78125 24.28125 " fill-opacity="1" fill-rule="nonzero"/><path fill="#000000" d="M 102.964844 12.824219 C 102.554688 12.257812 102.144531 11.691406 101.734375 11.125 C 101.671875 11.03125 101.585938 10.980469 101.496094 10.964844 C 101.453125 10.9375 101.40625 10.921875 101.351562 10.921875 C 101.289062 10.910156 101.21875 10.925781 101.148438 10.957031 C 98.613281 11.816406 96.089844 12.714844 93.574219 13.632812 C 91.046875 14.558594 88.539062 15.558594 85.957031 16.324219 C 81.113281 17.765625 76.277344 19.304688 71.832031 21.761719 C 71.792969 21.78125 71.765625 21.804688 71.738281 21.832031 C 71.703125 21.796875 71.671875 21.765625 71.632812 21.742188 C 70.957031 21.214844 69.980469 21.066406 69.390625 21.796875 C 68.96875 22.320312 68.855469 22.914062 68.949219 23.5 C 61.394531 28.542969 54.289062 34.207031 47.058594 39.699219 C 47.058594 39.699219 47.054688 39.699219 47.054688 39.703125 C 46.925781 39.75 46.824219 39.867188 46.847656 40.058594 C 46.925781 40.867188 47.148438 41.664062 47.363281 42.441406 C 47.398438 42.582031 47.484375 42.660156 47.589844 42.699219 C 47.664062 42.734375 47.757812 42.746094 47.855469 42.722656 C 50.96875 41.933594 54.15625 41.527344 57.332031 41.058594 C 57.15625 42.203125 57.042969 43.339844 56.964844 44.425781 C 56.855469 45.980469 56.835938 47.582031 57.070312 49.132812 C 55.980469 49.367188 55.261719 50.4375 55.457031 51.542969 C 55.464844 51.574219 55.472656 51.613281 55.480469 51.644531 C 54.347656 55.554688 55.523438 60.011719 58.292969 62.96875 C 58.597656 63.292969 58.96875 63.757812 59.371094 63.964844 C 59.714844 64.140625 60.082031 64.042969 60.457031 63.972656 C 61.398438 63.804688 62.320312 63.433594 63.097656 62.867188 C 64.574219 61.804688 65.464844 60.164062 65.730469 58.378906 C 65.777344 58.273438 65.773438 58.148438 65.699219 58.039062 C 65.148438 57.25 64.3125 56.589844 63.675781 55.882812 C 62.660156 54.761719 61.589844 53.582031 60.890625 52.222656 C 61.246094 51.128906 60.574219 50.046875 59.480469 49.714844 C 59.453125 49.703125 59.425781 49.703125 59.398438 49.699219 C 59.1875 48.15625 59.238281 46.566406 59.363281 45.03125 C 59.480469 43.554688 59.691406 42.074219 60.027344 40.628906 C 61.101562 40.441406 62.175781 40.238281 63.238281 39.988281 C 63.394531 41.105469 63.648438 42.199219 64.011719 43.25 C 64.023438 43.308594 64.039062 43.363281 64.070312 43.410156 C 64.296875 44.070312 64.570312 44.714844 64.882812 45.335938 C 64.894531 45.375 64.914062 45.40625 64.9375 45.4375 C 65.3125 46.1875 65.746094 46.910156 66.234375 47.601562 C 66.25 47.625 66.265625 47.644531 66.28125 47.660156 C 66.347656 47.738281 66.441406 47.796875 66.582031 47.804688 C 72.238281 47.933594 77.9375 47.164062 83.265625 45.214844 C 85.75 44.304688 88.246094 43.203125 90.394531 41.644531 C 92.390625 40.199219 93.910156 38.320312 94.972656 36.101562 C 96.175781 33.582031 96.820312 30.839844 97.246094 28.097656 C 97.25 28.070312 97.25 28.039062 97.25 28.011719 C 97.261719 27.910156 97.230469 27.796875 97.144531 27.703125 C 95.089844 25.484375 92.734375 23.582031 90.132812 22.039062 C 91.132812 21.304688 92.140625 20.582031 93.15625 19.867188 C 96.335938 17.632812 99.570312 15.472656 102.835938 13.375 C 102.878906 13.347656 102.910156 13.316406 102.929688 13.28125 C 103.042969 13.175781 103.097656 13.007812 102.964844 12.824219 Z M 86.453125 17.015625 C 88.9375 16.265625 91.351562 15.296875 93.789062 14.410156 C 95.28125 13.863281 96.78125 13.324219 98.289062 12.796875 C 93.738281 15.730469 89.21875 18.707031 84.835938 21.875 C 82.3125 23.699219 79.835938 25.582031 77.425781 27.558594 C 74.941406 29.601562 72.582031 31.820312 69.921875 33.640625 C 67.214844 35.496094 64.207031 36.660156 61.023438 37.367188 C 61.738281 35.625 62.753906 34.214844 64.25 32.921875 C 66.421875 31.042969 69.003906 29.722656 71.488281 28.308594 C 72.496094 27.734375 74.089844 27.074219 74.570312 25.914062 C 75 24.867188 73.957031 23.964844 73.015625 23.746094 C 72.957031 23.730469 72.898438 23.730469 72.847656 23.742188 C 72.707031 23.277344 72.53125 22.832031 72.277344 22.4375 C 76.734375 19.96875 81.585938 18.484375 86.453125 17.015625 Z M 69.839844 22.628906 C 70.289062 21.660156 71.265625 22.347656 71.660156 22.992188 C 71.984375 23.515625 72.121094 24.140625 72.261719 24.734375 C 72.15625 25.132812 71.792969 25.410156 71.371094 25.378906 C 71.347656 25.375 71.324219 25.378906 71.304688 25.378906 C 70.367188 24.949219 69.351562 23.691406 69.839844 22.628906 Z M 69.199219 24.292969 C 69.496094 24.925781 70 25.496094 70.570312 25.875 C 68.621094 27.027344 66.628906 28.117188 64.746094 29.382812 C 62.96875 30.585938 61.117188 31.984375 59.890625 33.777344 C 59.046875 35 58.449219 36.414062 58.011719 37.90625 C 54.988281 38.355469 51.9375 38.648438 48.949219 39.257812 C 55.617188 34.160156 62.21875 28.964844 69.199219 24.292969 Z M 48.03125 41.851562 C 47.894531 41.363281 47.761719 40.863281 47.6875 40.363281 C 51.007812 39.554688 54.410156 39.234375 57.789062 38.746094 C 57.664062 39.238281 57.558594 39.738281 57.464844 40.238281 C 57.4375 40.238281 57.414062 40.238281 57.390625 40.246094 C 54.261719 40.707031 51.113281 41.097656 48.03125 41.851562 Z M 60.398438 53.015625 C 61.0625 54.164062 61.980469 55.191406 62.851562 56.171875 C 63.335938 56.71875 63.835938 57.25 64.339844 57.777344 C 64.496094 57.9375 64.65625 58.097656 64.808594 58.257812 C 64.824219 58.273438 64.871094 58.324219 64.921875 58.378906 C 64.761719 59.289062 64.4375 60.148438 63.925781 60.898438 C 63.910156 60.875 63.890625 60.839844 63.863281 60.816406 C 62.246094 59.164062 61.128906 57.160156 60.570312 54.921875 C 60.441406 54.421875 59.671875 54.632812 59.796875 55.132812 C 60.390625 57.5 61.589844 59.640625 63.296875 61.382812 C 63.351562 61.4375 63.40625 61.46875 63.464844 61.484375 C 63.234375 61.734375 62.980469 61.96875 62.699219 62.175781 C 62.355469 62.425781 61.984375 62.632812 61.601562 62.796875 C 60.746094 61.941406 60.039062 60.980469 59.464844 59.914062 C 59.21875 59.464844 58.527344 59.867188 58.773438 60.320312 C 59.3125 61.332031 59.984375 62.257812 60.765625 63.085938 C 60.671875 63.113281 60.574219 63.132812 60.472656 63.15625 C 59.832031 63.292969 59.71875 63.230469 59.265625 62.796875 C 58.964844 62.511719 58.679688 62.207031 58.421875 61.882812 C 56.363281 59.378906 55.4375 55.925781 56.046875 52.738281 C 56.40625 53.144531 56.878906 53.4375 57.40625 53.589844 C 57.324219 54.28125 57.3125 54.96875 57.378906 55.660156 C 57.425781 56.171875 58.230469 56.175781 58.179688 55.660156 C 58.121094 55.011719 58.128906 54.367188 58.199219 53.722656 C 58.972656 53.765625 59.839844 53.566406 60.398438 53.015625 Z M 59.621094 51.238281 C 59.65625 51.164062 59.664062 51.082031 59.640625 50.984375 C 59.613281 50.863281 59.582031 50.738281 59.554688 50.617188 C 60.0625 50.910156 60.292969 51.484375 60.105469 52 C 60.082031 52.042969 60.058594 52.085938 60.046875 52.132812 C 59.980469 52.273438 59.871094 52.398438 59.738281 52.515625 C 59.238281 52.941406 58.40625 53.011719 57.777344 52.863281 C 57.117188 52.707031 56.511719 52.277344 56.296875 51.605469 C 56.054688 50.847656 56.46875 50.113281 57.214844 49.910156 C 57.238281 50.027344 57.265625 50.140625 57.292969 50.257812 C 57.53125 51.144531 58.449219 51.382812 59.25 51.480469 C 59.464844 51.523438 59.585938 51.394531 59.621094 51.238281 Z M 59.722656 38.625 C 59.105469 40.671875 58.738281 42.804688 58.5625 44.933594 C 58.410156 46.796875 58.367188 48.746094 58.730469 50.601562 C 58.425781 50.515625 58.144531 50.367188 58.058594 50.058594 C 57.234375 46.699219 57.714844 42.847656 58.488281 39.523438 C 58.878906 37.847656 59.398438 36.148438 60.277344 34.660156 C 61.335938 32.867188 63.132812 31.472656 64.820312 30.304688 C 66.964844 28.816406 69.28125 27.589844 71.515625 26.242188 C 71.558594 26.230469 71.597656 26.207031 71.628906 26.175781 C 72.3125 26.101562 72.957031 25.539062 73.054688 24.847656 C 73.054688 24.835938 73.054688 24.824219 73.058594 24.816406 C 73.070312 24.757812 73.070312 24.699219 73.054688 24.632812 C 73.054688 24.625 73.046875 24.613281 73.046875 24.605469 C 73.277344 24.699219 73.496094 24.835938 73.660156 25.023438 C 74 25.40625 73.753906 25.78125 73.429688 26.101562 C 72.953125 26.570312 72.339844 26.890625 71.773438 27.21875 C 70.582031 27.910156 69.371094 28.566406 68.1875 29.257812 C 65.9375 30.566406 63.6875 32.03125 61.984375 34.03125 C 60.871094 35.339844 60.21875 36.996094 59.722656 38.625 Z M 96.421875 28.125 C 95.699219 32.699219 94.292969 37.488281 90.554688 40.511719 C 88.472656 42.191406 85.941406 43.347656 83.453125 44.289062 C 80.964844 45.230469 78.378906 45.921875 75.753906 46.367188 C 72.792969 46.878906 69.789062 47.058594 66.78125 47.007812 C 66.46875 46.546875 66.179688 46.082031 65.910156 45.597656 C 71.199219 45.554688 76.484375 44.71875 81.441406 42.839844 C 83.910156 41.90625 86.382812 40.78125 88.488281 39.175781 C 90.363281 37.746094 91.789062 35.90625 92.789062 33.777344 C 93.851562 31.507812 94.472656 29.066406 94.890625 26.601562 C 95.421875 27.089844 95.925781 27.597656 96.421875 28.125 Z M 94.1875 25.96875 C 93.472656 30.421875 92.117188 35.113281 88.539062 38.117188 C 86.5625 39.773438 84.148438 40.914062 81.773438 41.855469 C 79.339844 42.820312 76.820312 43.539062 74.25 44.023438 C 71.363281 44.566406 68.429688 44.796875 65.5 44.796875 C 65.304688 44.394531 65.128906 43.988281 64.96875 43.570312 C 70.097656 43.421875 75.203125 42.511719 79.980469 40.625 C 82.296875 39.703125 84.605469 38.617188 86.589844 37.085938 C 88.398438 35.6875 89.773438 33.890625 90.75 31.832031 C 91.792969 29.628906 92.414062 27.261719 92.835938 24.863281 C 93.296875 25.21875 93.75 25.585938 94.1875 25.96875 Z M 92.117188 24.320312 C 91.394531 28.613281 90.042969 33.089844 86.632812 36.015625 C 84.75 37.628906 82.453125 38.75 80.171875 39.683594 C 77.882812 40.617188 75.511719 41.335938 73.089844 41.839844 C 70.324219 42.421875 67.511719 42.707031 64.6875 42.777344 C 64.371094 41.816406 64.144531 40.824219 64.015625 39.808594 C 65.730469 39.378906 67.40625 38.824219 69 38.054688 C 71.851562 36.683594 74.308594 34.65625 76.714844 32.628906 C 80.847656 29.144531 85.070312 25.765625 89.414062 22.558594 C 90.351562 23.101562 91.25 23.6875 92.117188 24.320312 Z M 85.78125 24.28125 C 83.105469 26.335938 80.472656 28.441406 77.882812 30.601562 C 75.382812 32.6875 72.949219 34.894531 70.121094 36.542969 C 67.082031 38.324219 63.671875 39.164062 60.230469 39.78125 C 60.363281 39.265625 60.511719 38.761719 60.679688 38.261719 L 60.679688 38.257812 C 63.527344 37.675781 66.324219 36.761719 68.839844 35.277344 C 71.53125 33.6875 73.882812 31.589844 76.253906 29.574219 C 81.230469 25.347656 86.53125 21.539062 91.953125 17.90625 C 95.03125 15.839844 98.144531 13.835938 101.261719 11.835938 C 101.523438 12.199219 101.789062 12.558594 102.046875 12.925781 C 96.484375 16.507812 91.03125 20.261719 85.78125 24.28125 Z M 85.78125 24.28125 " fill-opacity="1" fill-rule="nonzero"/><g clip-path="url(#bb0773f3dc)"><g clip-path="url(#1d052b2382)"><path fill="#1d2c54" d="M 75 34.273438 L 80.074219 34.273438 L 80.074219 39.101562 L 75 39.101562 Z M 75 34.273438 " fill-opacity="1" fill-rule="nonzero"/></g></g></svg>