<svg xmlns="http://www.w3.org/2000/svg" xmlns:xlink="http://www.w3.org/1999/xlink" width="200" zoomAndPan="magnify" viewBox="0 0 150 74.999997" height="100" preserveAspectRatio="xMidYMid meet" version="1.0"><defs><clipPath id="be87c419e3"><path d="M 49 10.550781 L 102 10.550781 L 102 63 L 49 63 Z M 49 10.550781 " clip-rule="nonzero"/></clipPath><clipPath id="d87d7577cb"><path d="M 93.15625 59.203125 L 95.894531 59.203125 L 95.894531 61.808594 L 93.15625 61.808594 Z M 93.15625 59.203125 " clip-rule="nonzero"/></clipPath><clipPath id="b821bd3454"><path d="M 94.523438 59.203125 L 94.84375 60.199219 L 95.890625 60.199219 L 95.042969 60.8125 L 95.367188 61.808594 L 94.523438 61.191406 L 93.675781 61.808594 L 94 60.8125 L 93.15625 60.199219 L 94.199219 60.199219 Z M 94.523438 59.203125 " clip-rule="nonzero"/></clipPath></defs><rect x="-15" width="180" fill="#ffffff" y="-7.5" height="89.999996" fill-opacity="1"/><rect x="-15" width="180" fill="#ffffff" y="-7.5" height="89.999996" fill-opacity="1"/><g clip-path="url(#be87c419e3)"><path fill="#ff004d" d="M 91.328125 47.28125 C 86.71875 53.511719 88.792969 56.652344 85.453125 59.722656 C 80.320312 64.445312 69.125 62.777344 62.011719 58.453125 C 53.296875 53.160156 47.503906 41.945312 50.398438 30.550781 C 53.484375 18.414062 65.292969 10.550781 76.914062 10.59375 C 87.289062 10.632812 98.457031 16.980469 100.902344 26.269531 C 101.167969 27.277344 102.492188 32.738281 99.875 38.023438 C 97.710938 42.390625 94.980469 42.339844 91.328125 47.28125 " fill-opacity="1" fill-rule="nonzero"/></g><path fill="#ff004d" d="M 95.246094 60.09375 L 90.464844 21.664062 C 90.347656 20.703125 89.472656 19.929688 88.515625 19.929688 L 67.453125 21.929688 L 67.113281 20.265625 L 64.730469 22.378906 C 64.636719 22.445312 64.550781 22.519531 64.476562 22.605469 C 64.199219 22.917969 64.054688 23.355469 64.113281 23.839844 L 68.460938 60.09375 C 68.578125 61.054688 69.453125 61.828125 70.410156 61.828125 L 93.726562 61.828125 C 94.6875 61.828125 95.367188 61.054688 95.246094 60.09375 " fill-opacity="1" fill-rule="nonzero"/><path fill="#1d2c54" d="M 91.417969 19.929688 L 68.097656 19.929688 C 67.140625 19.929688 66.460938 20.703125 66.578125 21.664062 L 71.359375 60.09375 C 71.480469 61.054688 72.351562 61.828125 73.308594 61.828125 L 96.628906 61.828125 C 97.585938 61.828125 98.265625 61.054688 98.148438 60.09375 L 93.367188 21.664062 C 93.25 20.703125 92.375 19.929688 91.417969 19.929688 " fill-opacity="1" fill-rule="nonzero"/><path fill="#ff004d" d="M 77.519531 44.863281 L 74.054688 44.863281 C 73.324219 44.863281 72.660156 44.273438 72.570312 43.542969 L 72.484375 42.851562 C 72.390625 42.121094 72.910156 41.527344 73.640625 41.527344 L 77.105469 41.527344 C 77.835938 41.527344 78.5 42.121094 78.589844 42.851562 L 78.675781 43.542969 C 78.769531 44.273438 78.25 44.863281 77.519531 44.863281 " fill-opacity="1" fill-rule="nonzero"/><path fill="#000000" d="M 73.640625 41.625 C 73.316406 41.625 73.027344 41.746094 72.828125 41.976562 C 72.625 42.203125 72.535156 42.511719 72.578125 42.839844 L 72.664062 43.53125 C 72.746094 44.214844 73.371094 44.769531 74.054688 44.769531 L 77.519531 44.769531 C 77.84375 44.769531 78.132812 44.644531 78.332031 44.417969 C 78.535156 44.191406 78.625 43.882812 78.582031 43.554688 L 78.496094 42.863281 C 78.414062 42.179688 77.789062 41.625 77.105469 41.625 Z M 77.519531 44.957031 L 74.054688 44.957031 C 73.28125 44.957031 72.574219 44.328125 72.476562 43.554688 L 72.390625 42.863281 C 72.34375 42.480469 72.449219 42.121094 72.6875 41.851562 C 72.921875 41.582031 73.261719 41.433594 73.640625 41.433594 L 77.105469 41.433594 C 77.878906 41.433594 78.585938 42.066406 78.683594 42.839844 L 78.769531 43.53125 C 78.816406 43.914062 78.710938 44.273438 78.472656 44.542969 C 78.238281 44.8125 77.898438 44.957031 77.519531 44.957031 " fill-opacity="1" fill-rule="nonzero"/><path fill="#ff004d" d="M 78.128906 49.761719 L 74.664062 49.761719 C 73.933594 49.761719 73.269531 49.171875 73.179688 48.441406 L 73.09375 47.75 C 73 47.019531 73.519531 46.429688 74.25 46.429688 L 77.714844 46.429688 C 78.445312 46.429688 79.109375 47.019531 79.199219 47.75 L 79.285156 48.441406 C 79.378906 49.171875 78.859375 49.761719 78.128906 49.761719 " fill-opacity="1" fill-rule="nonzero"/><path fill="#ff004d" d="M 78.738281 54.664062 L 75.273438 54.664062 C 74.542969 54.664062 73.878906 54.070312 73.789062 53.34375 L 73.703125 52.648438 C 73.609375 51.917969 74.128906 51.328125 74.859375 51.328125 L 78.324219 51.328125 C 79.054688 51.328125 79.71875 51.917969 79.808594 52.648438 L 79.894531 53.34375 C 79.988281 54.070312 79.46875 54.664062 78.738281 54.664062 " fill-opacity="1" fill-rule="nonzero"/><path fill="#000000" d="M 74.859375 51.421875 C 74.535156 51.421875 74.246094 51.546875 74.046875 51.773438 C 73.84375 52 73.753906 52.308594 73.796875 52.636719 L 73.882812 53.332031 C 73.964844 54.011719 74.589844 54.570312 75.273438 54.570312 L 78.738281 54.570312 C 79.0625 54.570312 79.351562 54.445312 79.550781 54.21875 C 79.753906 53.988281 79.84375 53.679688 79.800781 53.351562 L 79.714844 52.660156 C 79.632812 51.976562 79.007812 51.421875 78.324219 51.421875 Z M 78.738281 54.757812 L 75.273438 54.757812 C 74.5 54.757812 73.792969 54.128906 73.695312 53.351562 L 73.609375 52.660156 C 73.5625 52.277344 73.667969 51.917969 73.90625 51.648438 C 74.140625 51.378906 74.480469 51.234375 74.859375 51.234375 L 78.324219 51.234375 C 79.097656 51.234375 79.804688 51.863281 79.902344 52.636719 L 79.988281 53.332031 C 80.035156 53.710938 79.929688 54.070312 79.691406 54.339844 C 79.457031 54.609375 79.117188 54.757812 78.738281 54.757812 " fill-opacity="1" fill-rule="nonzero"/><path fill="#ff004d" d="M 84.839844 44.863281 L 81.371094 44.863281 C 80.640625 44.863281 79.976562 44.273438 79.886719 43.542969 L 79.800781 42.851562 C 79.710938 42.121094 80.226562 41.527344 80.957031 41.527344 L 84.421875 41.527344 C 85.152344 41.527344 85.816406 42.121094 85.90625 42.851562 L 85.996094 43.542969 C 86.085938 44.273438 85.566406 44.863281 84.839844 44.863281 " fill-opacity="1" fill-rule="nonzero"/><path fill="#ff004d" d="M 85.445312 49.761719 L 81.980469 49.761719 C 81.25 49.761719 80.585938 49.171875 80.496094 48.441406 L 80.410156 47.75 C 80.320312 47.019531 80.835938 46.429688 81.566406 46.429688 L 85.03125 46.429688 C 85.761719 46.429688 86.425781 47.019531 86.515625 47.75 L 86.605469 48.441406 C 86.695312 49.171875 86.175781 49.761719 85.445312 49.761719 " fill-opacity="1" fill-rule="nonzero"/><path fill="#000000" d="M 81.566406 46.523438 C 81.242188 46.523438 80.953125 46.648438 80.753906 46.875 C 80.550781 47.101562 80.460938 47.410156 80.503906 47.738281 L 80.589844 48.429688 C 80.671875 49.113281 81.296875 49.667969 81.980469 49.667969 L 85.445312 49.667969 C 85.769531 49.667969 86.058594 49.542969 86.257812 49.320312 C 86.460938 49.089844 86.550781 48.78125 86.511719 48.453125 L 86.425781 47.761719 C 86.339844 47.078125 85.714844 46.523438 85.03125 46.523438 Z M 85.445312 49.859375 L 81.980469 49.859375 C 81.207031 49.859375 80.5 49.226562 80.402344 48.453125 L 80.316406 47.761719 C 80.269531 47.378906 80.375 47.019531 80.613281 46.75 C 80.847656 46.480469 81.1875 46.335938 81.566406 46.335938 L 85.03125 46.335938 C 85.804688 46.335938 86.515625 46.964844 86.609375 47.738281 L 86.695312 48.429688 C 86.746094 48.8125 86.640625 49.171875 86.398438 49.441406 C 86.164062 49.710938 85.824219 49.859375 85.445312 49.859375 " fill-opacity="1" fill-rule="nonzero"/><path fill="#ff004d" d="M 86.054688 54.664062 L 82.589844 54.664062 C 81.859375 54.664062 81.195312 54.070312 81.105469 53.34375 L 81.019531 52.648438 C 80.929688 51.917969 81.445312 51.328125 82.175781 51.328125 L 85.640625 51.328125 C 86.371094 51.328125 87.035156 51.917969 87.125 52.648438 L 87.214844 53.34375 C 87.304688 54.070312 86.785156 54.664062 86.054688 54.664062 " fill-opacity="1" fill-rule="nonzero"/><path fill="#000000" d="M 82.175781 51.421875 C 81.851562 51.421875 81.5625 51.546875 81.363281 51.773438 C 81.160156 52 81.070312 52.308594 81.113281 52.636719 L 81.199219 53.332031 C 81.285156 54.011719 81.90625 54.570312 82.589844 54.570312 L 86.054688 54.570312 C 86.378906 54.570312 86.667969 54.445312 86.867188 54.21875 C 87.070312 53.988281 87.160156 53.679688 87.121094 53.355469 L 87.035156 52.660156 C 86.949219 51.976562 86.324219 51.421875 85.640625 51.421875 Z M 86.054688 54.757812 L 82.589844 54.757812 C 81.816406 54.757812 81.109375 54.128906 81.011719 53.355469 L 80.925781 52.660156 C 80.878906 52.277344 80.984375 51.917969 81.222656 51.648438 C 81.457031 51.378906 81.796875 51.234375 82.175781 51.234375 L 85.640625 51.234375 C 86.414062 51.234375 87.125 51.863281 87.21875 52.636719 L 87.304688 53.332031 C 87.355469 53.710938 87.25 54.070312 87.007812 54.339844 C 86.773438 54.609375 86.433594 54.757812 86.054688 54.757812 " fill-opacity="1" fill-rule="nonzero"/><path fill="#ff004d" d="M 92.15625 44.863281 L 88.6875 44.863281 C 87.960938 44.863281 87.292969 44.273438 87.203125 43.542969 L 87.117188 42.851562 C 87.027344 42.121094 87.542969 41.527344 88.273438 41.527344 L 91.742188 41.527344 C 92.46875 41.527344 93.132812 42.121094 93.226562 42.851562 L 93.3125 43.542969 C 93.402344 44.273438 92.882812 44.863281 92.15625 44.863281 " fill-opacity="1" fill-rule="nonzero"/><path fill="#000000" d="M 88.273438 41.621094 C 87.949219 41.621094 87.664062 41.746094 87.460938 41.972656 C 87.257812 42.203125 87.167969 42.511719 87.210938 42.839844 L 87.296875 43.53125 C 87.382812 44.214844 88.007812 44.769531 88.6875 44.769531 L 92.15625 44.769531 C 92.480469 44.769531 92.765625 44.644531 92.96875 44.417969 C 93.171875 44.191406 93.257812 43.882812 93.21875 43.554688 L 93.132812 42.863281 C 93.046875 42.179688 92.421875 41.621094 91.742188 41.621094 Z M 92.15625 44.957031 L 88.6875 44.957031 C 87.914062 44.957031 87.207031 44.328125 87.109375 43.554688 L 87.023438 42.863281 C 86.976562 42.480469 87.082031 42.121094 87.320312 41.851562 C 87.558594 41.582031 87.894531 41.433594 88.273438 41.433594 L 91.742188 41.433594 C 92.515625 41.433594 93.222656 42.066406 93.320312 42.839844 L 93.40625 43.53125 C 93.453125 43.914062 93.347656 44.273438 93.109375 44.542969 C 92.871094 44.8125 92.535156 44.957031 92.15625 44.957031 " fill-opacity="1" fill-rule="nonzero"/><path fill="#ff004d" d="M 92.765625 49.761719 L 89.296875 49.761719 C 88.570312 49.761719 87.902344 49.171875 87.8125 48.441406 L 87.726562 47.75 C 87.636719 47.019531 88.152344 46.429688 88.882812 46.429688 L 92.351562 46.429688 C 93.078125 46.429688 93.742188 47.019531 93.835938 47.75 L 93.921875 48.441406 C 94.011719 49.171875 93.492188 49.761719 92.765625 49.761719 " fill-opacity="1" fill-rule="nonzero"/><path fill="#000000" d="M 88.882812 46.523438 C 88.558594 46.523438 88.269531 46.648438 88.070312 46.875 C 87.867188 47.101562 87.777344 47.410156 87.820312 47.738281 L 87.90625 48.429688 C 87.992188 49.113281 88.613281 49.667969 89.296875 49.667969 L 92.765625 49.667969 C 93.085938 49.667969 93.375 49.542969 93.578125 49.320312 C 93.777344 49.089844 93.867188 48.78125 93.828125 48.453125 L 93.742188 47.761719 C 93.65625 47.078125 93.03125 46.523438 92.347656 46.523438 Z M 92.765625 49.859375 L 89.296875 49.859375 C 88.523438 49.859375 87.816406 49.226562 87.71875 48.453125 L 87.632812 47.761719 C 87.585938 47.378906 87.691406 47.019531 87.929688 46.75 C 88.167969 46.480469 88.503906 46.335938 88.882812 46.335938 L 92.347656 46.335938 C 93.125 46.335938 93.832031 46.964844 93.925781 47.738281 L 94.015625 48.429688 C 94.0625 48.8125 93.957031 49.171875 93.71875 49.441406 C 93.480469 49.710938 93.144531 49.859375 92.765625 49.859375 " fill-opacity="1" fill-rule="nonzero"/><path fill="#ff004d" d="M 93.375 54.664062 L 89.90625 54.664062 C 89.179688 54.664062 88.511719 54.070312 88.421875 53.34375 L 88.335938 52.648438 C 88.246094 51.917969 88.761719 51.328125 89.492188 51.328125 L 92.960938 51.328125 C 93.6875 51.328125 94.351562 51.917969 94.445312 52.648438 L 94.53125 53.34375 C 94.621094 54.070312 94.101562 54.664062 93.375 54.664062 " fill-opacity="1" fill-rule="nonzero"/><path fill="#000000" d="M 89.492188 51.421875 C 89.167969 51.421875 88.878906 51.546875 88.679688 51.773438 C 88.476562 52 88.386719 52.308594 88.429688 52.636719 L 88.515625 53.332031 C 88.601562 54.011719 89.226562 54.570312 89.90625 54.570312 L 93.375 54.570312 C 93.695312 54.570312 93.984375 54.445312 94.1875 54.21875 C 94.386719 53.988281 94.476562 53.679688 94.4375 53.355469 L 94.351562 52.660156 C 94.265625 51.976562 93.640625 51.421875 92.957031 51.421875 Z M 93.375 54.757812 L 89.90625 54.757812 C 89.132812 54.757812 88.425781 54.128906 88.328125 53.355469 L 88.242188 52.660156 C 88.195312 52.277344 88.300781 51.917969 88.539062 51.648438 C 88.777344 51.378906 89.113281 51.234375 89.492188 51.234375 L 92.957031 51.234375 C 93.734375 51.234375 94.441406 51.863281 94.535156 52.636719 L 94.625 53.332031 C 94.671875 53.710938 94.566406 54.070312 94.328125 54.339844 C 94.089844 54.609375 93.753906 54.757812 93.375 54.757812 " fill-opacity="1" fill-rule="nonzero"/><path fill="#ff004d" d="M 79.445312 59.3125 L 75.976562 59.3125 C 75.246094 59.3125 74.582031 58.722656 74.492188 57.992188 L 74.40625 57.296875 C 74.316406 56.570312 74.832031 55.976562 75.5625 55.976562 L 79.027344 55.976562 C 79.757812 55.976562 80.421875 56.570312 80.515625 57.296875 L 80.601562 57.992188 C 80.691406 58.722656 80.171875 59.3125 79.445312 59.3125 " fill-opacity="1" fill-rule="nonzero"/><path fill="#000000" d="M 75.5625 56.070312 C 75.238281 56.070312 74.949219 56.195312 74.75 56.421875 C 74.546875 56.652344 74.457031 56.960938 74.5 57.285156 L 74.585938 57.980469 C 74.671875 58.664062 75.296875 59.21875 75.976562 59.21875 L 79.445312 59.21875 C 79.765625 59.21875 80.054688 59.09375 80.257812 58.867188 C 80.457031 58.636719 80.546875 58.332031 80.507812 58.003906 L 80.421875 57.308594 C 80.335938 56.625 79.710938 56.070312 79.027344 56.070312 Z M 79.445312 59.40625 L 75.976562 59.40625 C 75.203125 59.40625 74.496094 58.777344 74.398438 58.003906 L 74.3125 57.308594 C 74.265625 56.929688 74.371094 56.570312 74.609375 56.296875 C 74.847656 56.03125 75.183594 55.882812 75.5625 55.882812 L 79.027344 55.882812 C 79.804688 55.882812 80.511719 56.511719 80.605469 57.285156 L 80.695312 57.980469 C 80.742188 58.363281 80.636719 58.722656 80.398438 58.992188 C 80.160156 59.257812 79.820312 59.40625 79.445312 59.40625 " fill-opacity="1" fill-rule="nonzero"/><path fill="#ff004d" d="M 86.761719 59.3125 L 83.292969 59.3125 C 82.566406 59.3125 81.902344 58.722656 81.808594 57.992188 L 81.722656 57.296875 C 81.632812 56.570312 82.148438 55.976562 82.878906 55.976562 L 86.347656 55.976562 C 87.074219 55.976562 87.742188 56.570312 87.832031 57.296875 L 87.917969 57.992188 C 88.007812 58.722656 87.492188 59.3125 86.761719 59.3125 " fill-opacity="1" fill-rule="nonzero"/><path fill="#000000" d="M 82.878906 56.070312 C 82.554688 56.070312 82.269531 56.195312 82.066406 56.421875 C 81.863281 56.652344 81.777344 56.960938 81.816406 57.285156 L 81.902344 57.980469 C 81.988281 58.664062 82.613281 59.21875 83.292969 59.21875 L 86.761719 59.21875 C 87.085938 59.21875 87.375 59.09375 87.574219 58.867188 C 87.777344 58.636719 87.863281 58.332031 87.824219 58.003906 L 87.738281 57.308594 C 87.652344 56.625 87.027344 56.070312 86.347656 56.070312 Z M 86.761719 59.40625 L 83.292969 59.40625 C 82.519531 59.40625 81.8125 58.777344 81.714844 58.003906 L 81.628906 57.308594 C 81.582031 56.929688 81.6875 56.570312 81.925781 56.296875 C 82.164062 56.03125 82.5 55.882812 82.878906 55.882812 L 86.347656 55.882812 C 87.121094 55.882812 87.828125 56.511719 87.925781 57.285156 L 88.011719 57.980469 C 88.058594 58.363281 87.953125 58.722656 87.714844 58.992188 C 87.476562 59.257812 87.140625 59.40625 86.761719 59.40625 " fill-opacity="1" fill-rule="nonzero"/><path fill="#1d2c54" d="M 94.078125 59.3125 L 90.613281 59.3125 C 89.882812 59.3125 89.21875 58.722656 89.125 57.992188 L 89.039062 57.296875 C 88.949219 56.570312 89.46875 55.976562 90.195312 55.976562 L 93.664062 55.976562 C 94.390625 55.976562 95.058594 56.570312 95.148438 57.296875 L 95.234375 57.992188 C 95.324219 58.722656 94.808594 59.3125 94.078125 59.3125 " fill-opacity="1" fill-rule="nonzero"/><path fill="#000000" d="M 90.195312 56.070312 C 89.875 56.070312 89.585938 56.195312 89.382812 56.421875 C 89.183594 56.652344 89.09375 56.960938 89.132812 57.285156 L 89.21875 57.980469 C 89.304688 58.664062 89.929688 59.21875 90.613281 59.21875 L 94.078125 59.21875 C 94.402344 59.21875 94.691406 59.09375 94.890625 58.867188 C 95.09375 58.636719 95.183594 58.332031 95.140625 58.003906 L 95.054688 57.308594 C 94.96875 56.625 94.347656 56.070312 93.664062 56.070312 Z M 94.078125 59.40625 L 90.613281 59.40625 C 89.835938 59.40625 89.128906 58.777344 89.035156 58.003906 L 88.949219 57.308594 C 88.898438 56.929688 89.003906 56.570312 89.242188 56.296875 C 89.480469 56.03125 89.820312 55.882812 90.195312 55.882812 L 93.664062 55.882812 C 94.4375 55.882812 95.144531 56.511719 95.242188 57.285156 L 95.328125 57.980469 C 95.375 58.363281 95.269531 58.722656 95.03125 58.992188 C 94.796875 59.257812 94.457031 59.40625 94.078125 59.40625 " fill-opacity="1" fill-rule="nonzero"/><path fill="#ff004d" d="M 91.253906 39.808594 L 73.910156 39.808594 C 72.972656 39.808594 72.117188 39.175781 72 38.398438 L 70.097656 25.695312 C 69.980469 24.914062 70.644531 24.285156 71.582031 24.285156 L 88.929688 24.285156 C 89.867188 24.285156 90.722656 24.914062 90.839844 25.695312 L 92.742188 38.398438 C 92.859375 39.175781 92.191406 39.808594 91.253906 39.808594 " fill-opacity="1" fill-rule="nonzero"/><path fill="#ffffff" d="M 78.875 24.285156 L 71.175781 32.90625 L 71.777344 36.910156 L 83.050781 24.285156 L 78.875 24.285156 " fill-opacity="1" fill-rule="nonzero"/><path fill="#ffffff" d="M 85.304688 24.285156 L 72.1875 38.972656 C 72.484375 39.460938 73.105469 39.808594 73.773438 39.808594 L 74.378906 39.808594 L 88.007812 24.285156 L 85.304688 24.285156 " fill-opacity="1" fill-rule="nonzero"/><path fill="#000000" d="M 91.253906 39.902344 L 86.117188 39.902344 C 86.0625 39.902344 86.019531 39.859375 86.019531 39.808594 C 86.019531 39.757812 86.0625 39.714844 86.117188 39.714844 L 91.253906 39.714844 C 91.730469 39.714844 92.152344 39.542969 92.410156 39.242188 C 92.609375 39.011719 92.695312 38.714844 92.648438 38.414062 L 92.074219 34.566406 C 92.066406 34.515625 92.101562 34.46875 92.152344 34.460938 C 92.203125 34.453125 92.25 34.488281 92.257812 34.539062 L 92.835938 38.382812 C 92.886719 38.742188 92.789062 39.09375 92.550781 39.367188 C 92.257812 39.707031 91.785156 39.902344 91.253906 39.902344 " fill-opacity="1" fill-rule="nonzero"/><path fill="#000000" d="M 70.347656 27.476562 C 70.304688 27.476562 70.261719 27.441406 70.257812 27.394531 L 70.003906 25.707031 C 69.949219 25.347656 70.050781 25 70.285156 24.726562 C 70.582031 24.386719 71.054688 24.191406 71.582031 24.191406 L 88.929688 24.191406 C 89.910156 24.191406 90.808594 24.859375 90.929688 25.679688 C 90.9375 25.730469 90.902344 25.78125 90.851562 25.789062 C 90.800781 25.792969 90.753906 25.757812 90.746094 25.707031 C 90.636719 24.972656 89.820312 24.378906 88.929688 24.378906 L 71.582031 24.378906 C 71.109375 24.378906 70.6875 24.550781 70.429688 24.847656 C 70.230469 25.082031 70.144531 25.375 70.191406 25.679688 L 70.441406 27.367188 C 70.449219 27.417969 70.414062 27.46875 70.363281 27.476562 C 70.359375 27.476562 70.355469 27.476562 70.347656 27.476562 " fill-opacity="1" fill-rule="nonzero"/><path fill="#ff004d" d="M 72.015625 21.644531 L 88.195312 21.625 C 88.457031 21.625 88.664062 21.84375 88.652344 22.101562 C 88.644531 22.347656 88.445312 22.539062 88.203125 22.542969 L 72.03125 22.765625 C 71.78125 22.769531 71.578125 22.574219 71.566406 22.324219 L 71.558594 22.121094 C 71.546875 21.859375 71.753906 21.644531 72.015625 21.644531 " fill-opacity="1" fill-rule="nonzero"/><path fill="#ffffff" d="M 72.007812 22.300781 L 70.832031 13.519531 L 72.027344 14.316406 L 73.242188 13.472656 L 74.683594 14.261719 L 76.128906 13.386719 L 77.503906 14.191406 L 78.832031 13.339844 L 80.039062 14.105469 L 81.425781 13.269531 L 82.824219 14.070312 L 83.972656 13.210938 L 85.414062 13.980469 L 86.851562 13.140625 L 87.980469 22.253906 L 72.007812 22.300781 " fill-opacity="1" fill-rule="nonzero"/><path fill="#ff004d" d="M 73.171875 16.3125 C 73.121094 16.3125 73.078125 16.273438 73.078125 16.222656 C 73.074219 16.167969 73.117188 16.125 73.167969 16.125 L 85.710938 15.773438 C 85.757812 15.769531 85.804688 15.8125 85.804688 15.863281 C 85.808594 15.914062 85.765625 15.957031 85.714844 15.960938 L 73.171875 16.3125 " fill-opacity="1" fill-rule="nonzero"/><path fill="#ff004d" d="M 73.3125 17.582031 C 73.261719 17.582031 73.21875 17.539062 73.21875 17.488281 C 73.214844 17.4375 73.257812 17.394531 73.308594 17.394531 L 85.851562 17.039062 C 85.902344 17.039062 85.945312 17.078125 85.945312 17.132812 C 85.949219 17.183594 85.90625 17.226562 85.855469 17.230469 L 73.3125 17.582031 " fill-opacity="1" fill-rule="nonzero"/><path fill="#ffffff" d="M 63.632812 58.503906 L 63.398438 60.675781 L 64.78125 60.671875 L 65.328125 58.414062 L 63.632812 58.503906 " fill-opacity="1" fill-rule="nonzero"/><path fill="#000000" d="M 63.71875 58.59375 L 63.503906 60.582031 L 64.707031 60.578125 L 65.207031 58.515625 Z M 63.398438 60.769531 C 63.375 60.769531 63.347656 60.757812 63.332031 60.738281 C 63.3125 60.71875 63.304688 60.691406 63.308594 60.667969 L 63.539062 58.496094 C 63.546875 58.449219 63.582031 58.414062 63.628906 58.410156 L 65.324219 58.320312 C 65.355469 58.320312 65.382812 58.332031 65.402344 58.355469 C 65.421875 58.378906 65.425781 58.410156 65.421875 58.4375 L 64.871094 60.695312 C 64.859375 60.738281 64.824219 60.765625 64.78125 60.765625 L 63.402344 60.769531 C 63.402344 60.769531 63.398438 60.769531 63.398438 60.769531 " fill-opacity="1" fill-rule="nonzero"/><path fill="#ffffff" d="M 55.976562 58.554688 L 55.367188 60.230469 L 56.609375 60.566406 L 57.167969 59.089844 L 55.976562 58.554688 " fill-opacity="1" fill-rule="nonzero"/><path fill="#000000" d="M 55.492188 60.164062 L 56.550781 60.453125 L 57.046875 59.136719 L 56.027344 58.683594 Z M 56.609375 60.660156 C 56.601562 60.660156 56.59375 60.660156 56.582031 60.65625 L 55.34375 60.320312 C 55.316406 60.3125 55.296875 60.296875 55.285156 60.273438 C 55.273438 60.25 55.269531 60.222656 55.277344 60.195312 L 55.886719 58.523438 C 55.894531 58.5 55.914062 58.480469 55.9375 58.46875 C 55.960938 58.457031 55.988281 58.457031 56.011719 58.46875 L 57.203125 59.003906 C 57.25 59.023438 57.273438 59.074219 57.253906 59.121094 L 56.695312 60.601562 C 56.683594 60.636719 56.648438 60.660156 56.609375 60.660156 " fill-opacity="1" fill-rule="nonzero"/><path fill="#1d2c54" d="M 63.214844 60.144531 C 63.171875 60.441406 63.101562 60.988281 63.089844 61.480469 C 63.085938 61.789062 63.308594 62.050781 63.601562 62.09375 C 64.4375 62.210938 66.339844 62.351562 67.957031 62.214844 C 68.070312 62.207031 68.265625 62.125 68.324219 61.839844 C 68.519531 60.863281 66.832031 60.621094 65.023438 59.871094 L 64.703125 60.1875 C 64.535156 60.351562 64.285156 60.398438 64.070312 60.300781 L 63.441406 60.015625 C 63.34375 59.972656 63.230469 60.035156 63.214844 60.144531 " fill-opacity="1" fill-rule="nonzero"/><path fill="#000000" d="M 63.308594 60.160156 C 63.265625 60.441406 63.195312 60.992188 63.183594 61.480469 C 63.179688 61.742188 63.363281 61.964844 63.617188 62 C 64.480469 62.121094 66.347656 62.257812 67.949219 62.121094 C 67.988281 62.121094 68.175781 62.089844 68.230469 61.820312 C 68.363281 61.167969 67.496094 60.867188 66.300781 60.449219 C 65.914062 60.3125 65.480469 60.160156 65.042969 59.984375 L 64.769531 60.253906 C 64.570312 60.449219 64.28125 60.5 64.03125 60.386719 L 63.402344 60.101562 C 63.378906 60.089844 63.355469 60.097656 63.34375 60.105469 C 63.324219 60.117188 63.3125 60.136719 63.308594 60.160156 Z M 66.496094 62.367188 C 65.320312 62.367188 64.203125 62.273438 63.589844 62.183594 C 63.246094 62.136719 62.988281 61.832031 62.996094 61.476562 C 63.007812 60.976562 63.078125 60.421875 63.121094 60.132812 C 63.132812 60.050781 63.183594 59.980469 63.253906 59.941406 C 63.324219 59.902344 63.40625 59.898438 63.480469 59.929688 L 64.109375 60.214844 C 64.289062 60.296875 64.496094 60.257812 64.636719 60.117188 L 65 59.761719 L 65.058594 59.785156 C 65.507812 59.972656 65.960938 60.132812 66.363281 60.269531 C 67.601562 60.703125 68.578125 61.046875 68.414062 61.859375 C 68.351562 62.167969 68.132812 62.296875 67.964844 62.308594 C 67.488281 62.351562 66.988281 62.367188 66.496094 62.367188 " fill-opacity="1" fill-rule="nonzero"/><path fill="#ffffff" d="M 63.09375 61.40625 C 63.09375 61.40625 63.089844 61.457031 63.089844 61.480469 C 63.085938 61.789062 63.308594 62.050781 63.601562 62.09375 C 64.4375 62.210938 66.339844 62.351562 67.957031 62.214844 C 68.070312 62.207031 68.265625 62.125 68.324219 61.839844 C 68.339844 61.753906 68.332031 61.59375 68.332031 61.59375 L 68.21875 61.601562 C 66.582031 61.667969 64.941406 61.609375 63.3125 61.429688 L 63.09375 61.40625 " fill-opacity="1" fill-rule="nonzero"/><path fill="#000000" d="M 63.183594 61.511719 C 63.195312 61.757812 63.375 61.964844 63.617188 62 C 64.480469 62.121094 66.347656 62.257812 67.949219 62.121094 C 67.988281 62.121094 68.175781 62.089844 68.230469 61.820312 C 68.238281 61.789062 68.238281 61.738281 68.242188 61.691406 L 68.222656 61.695312 C 66.585938 61.761719 64.929688 61.703125 63.304688 61.523438 Z M 66.496094 62.367188 C 65.320312 62.367188 64.203125 62.273438 63.589844 62.183594 C 63.246094 62.136719 62.988281 61.832031 62.996094 61.476562 C 62.996094 61.453125 63 61.402344 63 61.402344 C 63 61.375 63.011719 61.351562 63.03125 61.335938 C 63.050781 61.316406 63.078125 61.308594 63.101562 61.3125 L 63.324219 61.335938 C 64.941406 61.515625 66.585938 61.574219 68.214844 61.507812 L 68.328125 61.5 C 68.378906 61.5 68.421875 61.539062 68.425781 61.589844 C 68.425781 61.609375 68.433594 61.761719 68.414062 61.859375 C 68.351562 62.167969 68.132812 62.296875 67.964844 62.308594 C 67.488281 62.351562 66.988281 62.367188 66.496094 62.367188 " fill-opacity="1" fill-rule="nonzero"/><path fill="#000000" d="M 65.441406 61.050781 C 65.417969 61.050781 65.394531 61.042969 65.375 61.023438 C 65.339844 60.988281 65.335938 60.929688 65.375 60.890625 L 65.957031 60.28125 C 65.996094 60.242188 66.054688 60.242188 66.089844 60.277344 C 66.128906 60.3125 66.128906 60.371094 66.09375 60.410156 L 65.507812 61.023438 C 65.492188 61.042969 65.464844 61.050781 65.441406 61.050781 " fill-opacity="1" fill-rule="nonzero"/><path fill="#000000" d="M 66.125 61.238281 C 66.101562 61.238281 66.082031 61.230469 66.066406 61.21875 C 66.023438 61.1875 66.019531 61.125 66.050781 61.085938 L 66.570312 60.445312 C 66.605469 60.40625 66.664062 60.398438 66.703125 60.429688 C 66.742188 60.464844 66.75 60.523438 66.71875 60.5625 L 66.195312 61.203125 C 66.179688 61.226562 66.152344 61.238281 66.125 61.238281 " fill-opacity="1" fill-rule="nonzero"/><path fill="#1d2c54" d="M 55.394531 59.226562 C 55.261719 59.46875 54.941406 60.164062 54.773438 60.589844 C 54.667969 60.855469 54.777344 61.160156 55.023438 61.300781 C 55.714844 61.691406 57.484375 62.128906 58.941406 62.566406 C 59.039062 62.597656 59.238281 62.59375 59.378906 62.363281 C 59.867188 61.578125 58.34375 60.917969 57.007812 59.644531 C 57.007812 59.644531 56.894531 59.699219 56.742188 59.734375 C 56.488281 59.800781 56.125 59.6875 55.9375 59.496094 L 55.636719 59.191406 C 55.5625 59.121094 55.445312 59.136719 55.394531 59.226562 " fill-opacity="1" fill-rule="nonzero"/><path fill="#000000" d="M 55.480469 59.273438 C 55.34375 59.515625 55.019531 60.214844 54.859375 60.625 C 54.773438 60.84375 54.863281 61.101562 55.066406 61.21875 C 55.574219 61.503906 56.710938 61.828125 57.808594 62.140625 C 58.195312 62.25 58.59375 62.363281 58.96875 62.476562 C 59 62.484375 59.167969 62.523438 59.300781 62.3125 C 59.578125 61.867188 59.082031 61.449219 58.183594 60.75 C 57.8125 60.464844 57.390625 60.136719 56.988281 59.757812 C 56.9375 59.777344 56.859375 59.804688 56.765625 59.828125 C 56.484375 59.898438 56.082031 59.777344 55.867188 59.5625 L 55.570312 59.257812 C 55.550781 59.238281 55.53125 59.238281 55.519531 59.242188 C 55.511719 59.242188 55.492188 59.25 55.480469 59.273438 Z M 59.035156 62.671875 C 58.992188 62.671875 58.949219 62.667969 58.914062 62.65625 C 58.542969 62.542969 58.140625 62.429688 57.757812 62.320312 C 56.597656 61.988281 55.5 61.675781 54.976562 61.382812 C 54.6875 61.21875 54.5625 60.863281 54.6875 60.554688 C 54.851562 60.128906 55.175781 59.433594 55.3125 59.179688 C 55.351562 59.113281 55.417969 59.066406 55.496094 59.054688 C 55.570312 59.042969 55.648438 59.070312 55.703125 59.125 L 56.003906 59.429688 C 56.171875 59.601562 56.5 59.699219 56.722656 59.644531 C 56.859375 59.609375 56.964844 59.5625 56.964844 59.558594 L 57.023438 59.53125 L 57.070312 59.578125 C 57.484375 59.96875 57.917969 60.304688 58.296875 60.601562 C 59.160156 61.273438 59.839844 61.800781 59.460938 62.414062 C 59.339844 62.605469 59.175781 62.671875 59.035156 62.671875 " fill-opacity="1" fill-rule="nonzero"/><path fill="#ffffff" d="M 54.851562 60.417969 C 54.851562 60.417969 54.75 60.628906 54.679688 60.777344 C 54.679688 60.785156 54.675781 60.789062 54.675781 60.792969 C 54.570312 61.058594 54.785156 61.292969 55.003906 61.472656 C 55.664062 62.019531 58.761719 62.570312 58.761719 62.570312 C 58.761719 62.570312 59.164062 62.6875 59.335938 62.464844 C 59.363281 62.433594 59.382812 62.378906 59.398438 62.335938 C 59.417969 62.289062 59.425781 62.238281 59.425781 62.1875 L 59.425781 62.066406 C 55.304688 61.539062 54.851562 60.417969 54.851562 60.417969 " fill-opacity="1" fill-rule="nonzero"/><path fill="#000000" d="M 54.867188 60.605469 C 54.832031 60.671875 54.796875 60.75 54.765625 60.816406 L 54.761719 60.828125 C 54.695312 60.996094 54.789062 61.171875 55.0625 61.402344 C 55.695312 61.921875 58.746094 62.472656 58.777344 62.480469 C 58.78125 62.480469 58.785156 62.480469 58.785156 62.480469 C 58.882812 62.507812 59.15625 62.546875 59.261719 62.40625 C 59.269531 62.398438 59.289062 62.371094 59.3125 62.304688 C 59.324219 62.269531 59.332031 62.226562 59.332031 62.183594 L 59.332031 62.148438 C 56.117188 61.726562 55.140625 60.9375 54.867188 60.605469 Z M 58.992188 62.695312 C 58.867188 62.695312 58.765625 62.667969 58.738281 62.664062 C 58.5625 62.632812 55.609375 62.09375 54.945312 61.546875 C 54.726562 61.367188 54.457031 61.089844 54.585938 60.757812 C 54.589844 60.753906 54.589844 60.75 54.59375 60.738281 C 54.664062 60.589844 54.765625 60.382812 54.769531 60.375 C 54.785156 60.34375 54.820312 60.324219 54.855469 60.324219 C 54.894531 60.324219 54.925781 60.347656 54.941406 60.382812 C 54.949219 60.398438 55.46875 61.464844 59.4375 61.972656 C 59.488281 61.980469 59.523438 62.019531 59.519531 62.066406 L 59.519531 62.1875 C 59.519531 62.25 59.507812 62.3125 59.488281 62.367188 C 59.464844 62.433594 59.4375 62.488281 59.410156 62.523438 C 59.304688 62.660156 59.132812 62.695312 58.992188 62.695312 " fill-opacity="1" fill-rule="nonzero"/><path fill="#000000" d="M 56.992188 60.492188 C 56.957031 60.492188 56.921875 60.472656 56.90625 60.4375 C 56.886719 60.386719 56.90625 60.332031 56.953125 60.3125 L 57.484375 60.078125 C 57.53125 60.054688 57.585938 60.078125 57.605469 60.125 C 57.628906 60.171875 57.605469 60.226562 57.558594 60.25 L 57.03125 60.484375 C 57.019531 60.488281 57.003906 60.492188 56.992188 60.492188 " fill-opacity="1" fill-rule="nonzero"/><path fill="#000000" d="M 57.527344 60.890625 C 57.492188 60.890625 57.457031 60.867188 57.441406 60.832031 C 57.421875 60.785156 57.441406 60.730469 57.488281 60.710938 L 57.949219 60.507812 C 58 60.488281 58.054688 60.507812 58.074219 60.558594 C 58.09375 60.605469 58.074219 60.660156 58.027344 60.679688 L 57.5625 60.882812 C 57.550781 60.886719 57.539062 60.890625 57.527344 60.890625 " fill-opacity="1" fill-rule="nonzero"/><path fill="#000000" d="M 59.011719 39.976562 C 59.011719 39.976562 58.609375 42.777344 58.585938 42.96875 C 58.550781 43.226562 55.871094 57.441406 55.644531 58.597656 C 55.644531 58.597656 56.839844 59.257812 57.574219 59.175781 C 57.574219 59.175781 61.644531 51.757812 62.628906 45.484375 C 63.613281 39.214844 63.390625 39.707031 63.390625 39.707031 L 59.011719 39.976562 " fill-opacity="1" fill-rule="nonzero"/><path fill="#000000" d="M 60.882812 40.515625 C 60.882812 40.515625 60.480469 43.917969 61.511719 46.394531 C 62.539062 48.871094 63.691406 56.878906 63.308594 59.296875 C 63.308594 59.296875 64.742188 59.773438 65.445312 59.53125 C 65.445312 59.53125 68.132812 47.523438 65.804688 40.730469 L 60.882812 40.515625 " fill-opacity="1" fill-rule="nonzero"/><path fill="#ffffff" d="M 65.890625 26.042969 L 65.863281 26 C 65.761719 25.835938 65.695312 25.652344 65.65625 25.464844 C 65.621094 25.289062 65.570312 24.96875 65.484375 24.882812 C 65.25 24.652344 64.3125 23.652344 63.308594 24.476562 C 62.523438 25.117188 62.945312 26.527344 63.113281 27 C 63.152344 27.109375 63.167969 27.226562 63.152344 27.339844 C 63.152344 27.347656 63.152344 27.351562 63.148438 27.359375 L 62.902344 28.617188 C 62.867188 28.800781 62.945312 28.984375 63.101562 29.082031 L 63.1875 29.132812 C 63.382812 29.273438 63.738281 29.277344 63.96875 29.234375 C 64.136719 29.207031 64.257812 29.160156 64.363281 29.058594 C 64.464844 28.964844 64.492188 28.875 64.492188 28.730469 C 64.492188 28.730469 64.53125 27.71875 64.660156 27.761719 C 65.089844 27.90625 65.28125 27.816406 65.441406 27.476562 C 65.539062 27.261719 65.664062 26.9375 65.699219 26.488281 C 65.703125 26.441406 65.722656 26.398438 65.753906 26.363281 L 65.886719 26.214844 C 65.921875 26.164062 65.921875 26.097656 65.890625 26.042969 " fill-opacity="1" fill-rule="nonzero"/><path fill="#000000" d="M 65.886719 26.214844 Z M 64.132812 24.25 C 63.890625 24.25 63.632812 24.332031 63.367188 24.550781 C 62.652344 25.136719 63.015625 26.4375 63.203125 26.96875 C 63.246094 27.089844 63.261719 27.222656 63.246094 27.351562 C 63.246094 27.359375 63.242188 27.367188 63.242188 27.375 L 62.996094 28.636719 C 62.964844 28.78125 63.03125 28.925781 63.152344 29 L 63.238281 29.054688 C 63.238281 29.054688 63.242188 29.054688 63.242188 29.058594 C 63.402344 29.171875 63.722656 29.183594 63.953125 29.144531 C 64.113281 29.117188 64.214844 29.070312 64.300781 28.992188 C 64.375 28.921875 64.398438 28.859375 64.398438 28.730469 C 64.421875 28.105469 64.484375 27.757812 64.582031 27.6875 C 64.613281 27.667969 64.652344 27.660156 64.691406 27.671875 C 65.097656 27.8125 65.226562 27.710938 65.355469 27.4375 C 65.496094 27.136719 65.578125 26.824219 65.605469 26.480469 C 65.609375 26.414062 65.636719 26.347656 65.683594 26.300781 L 65.8125 26.160156 C 65.824219 26.136719 65.824219 26.113281 65.808594 26.09375 L 65.78125 26.046875 C 65.679688 25.878906 65.605469 25.691406 65.5625 25.480469 C 65.558594 25.457031 65.554688 25.429688 65.546875 25.402344 C 65.523438 25.273438 65.472656 25.003906 65.417969 24.953125 L 65.394531 24.925781 C 65.199219 24.730469 64.71875 24.25 64.132812 24.25 Z M 63.699219 29.351562 C 63.496094 29.351562 63.28125 29.316406 63.136719 29.210938 L 63.054688 29.160156 C 62.863281 29.046875 62.765625 28.820312 62.808594 28.597656 L 63.058594 27.339844 C 63.058594 27.335938 63.058594 27.332031 63.058594 27.328125 C 63.070312 27.226562 63.058594 27.125 63.027344 27.03125 C 62.824219 26.460938 62.4375 25.066406 63.246094 24.402344 C 63.9375 23.839844 64.703125 23.96875 65.527344 24.792969 L 65.550781 24.816406 C 65.636719 24.902344 65.683594 25.105469 65.734375 25.367188 C 65.738281 25.394531 65.742188 25.421875 65.75 25.445312 C 65.785156 25.632812 65.851562 25.800781 65.941406 25.949219 L 65.96875 25.996094 C 66.023438 26.078125 66.019531 26.1875 65.964844 26.269531 C 65.960938 26.273438 65.957031 26.277344 65.957031 26.277344 L 65.820312 26.425781 C 65.804688 26.445312 65.792969 26.46875 65.792969 26.496094 C 65.761719 26.863281 65.675781 27.195312 65.523438 27.515625 C 65.347656 27.894531 65.109375 27.996094 64.683594 27.867188 C 64.640625 27.996094 64.601562 28.394531 64.585938 28.734375 C 64.585938 28.882812 64.558594 29.007812 64.429688 29.128906 C 64.316406 29.234375 64.183594 29.292969 63.984375 29.328125 C 63.898438 29.34375 63.800781 29.351562 63.699219 29.351562 " fill-opacity="1" fill-rule="nonzero"/><path fill="#000000" d="M 64.125 23.265625 C 64.460938 23.308594 64.800781 23.480469 64.96875 23.476562 C 65.242188 23.472656 65.351562 23.183594 65.714844 23.21875 C 66.160156 23.261719 66.269531 23.496094 66.34375 23.792969 C 66.355469 23.84375 66.363281 23.898438 66.363281 23.953125 C 66.378906 24.730469 65.941406 24.953125 65.757812 25.011719 C 65.757812 25.011719 64.675781 25.164062 64.472656 25.246094 C 64.28125 25.320312 64.007812 25.5625 63.964844 26.027344 C 63.960938 26.089844 63.914062 26.136719 63.859375 26.148438 C 63.792969 26.164062 63.726562 26.125 63.707031 26.054688 C 63.648438 25.839844 63.503906 25.417969 63.292969 25.429688 C 63.023438 25.449219 62.855469 26.171875 63.339844 26.429688 C 63.488281 26.511719 63.558594 26.714844 63.488281 26.875 C 63.4375 26.980469 63.292969 27.074219 63.128906 27.058594 C 63.03125 27.046875 62.953125 26.976562 62.890625 26.898438 C 62.628906 26.566406 62 25.332031 62.167969 24.476562 C 62.367188 23.449219 63.679688 23.210938 64.125 23.265625 " fill-opacity="1" fill-rule="nonzero"/><path fill="#000000" d="M 64.636719 27.835938 C 64.628906 27.835938 64.617188 27.832031 64.605469 27.828125 C 64.589844 27.824219 64.222656 27.675781 64.035156 27.355469 C 64.011719 27.3125 64.023438 27.257812 64.066406 27.234375 C 64.105469 27.210938 64.160156 27.222656 64.183594 27.265625 C 64.34375 27.535156 64.667969 27.664062 64.671875 27.664062 C 64.714844 27.683594 64.738281 27.734375 64.71875 27.777344 C 64.707031 27.8125 64.671875 27.835938 64.636719 27.835938 " fill-opacity="1" fill-rule="nonzero"/><path fill="#ffffff" d="M 73.777344 35.425781 C 74.0625 35.699219 75.316406 34.613281 75.128906 34.25 C 74.757812 33.523438 73.226562 31.792969 71.328125 30.695312 C 68.984375 29.339844 66.984375 29.199219 65.332031 29.183594 C 65.160156 29.183594 64.367188 28.460938 62.945312 28.546875 C 62.535156 28.570312 62.136719 28.683594 61.875 29.011719 C 61.839844 29.058594 61.785156 29.082031 61.726562 29.082031 C 60.066406 29.015625 59.101562 29.539062 58.921875 29.644531 C 57.375 30.558594 53.886719 33.871094 52.941406 36.570312 C 51.519531 40.617188 52.804688 43.488281 53.328125 44.328125 C 53.417969 44.46875 53.609375 44.472656 53.707031 44.339844 L 54.335938 43.425781 C 54.335938 43.425781 53.992188 41.679688 55.257812 39.296875 C 56.863281 36.28125 60.128906 32.523438 59.253906 37.707031 C 59.132812 38.402344 58.957031 39.230469 58.828125 40.070312 C 58.683594 40.992188 58.957031 41.925781 59.8125 42.238281 C 60.839844 42.613281 62.203125 42.519531 62.722656 42.472656 C 63.609375 42.394531 64.570312 42.316406 65.320312 41.992188 C 65.601562 41.871094 65.910156 41.636719 66.125 41.453125 C 66.296875 41.308594 66.378906 41.078125 66.34375 40.851562 C 66.246094 40.222656 66.070312 38.847656 66.132812 37.589844 C 66.183594 36.496094 66.703125 33.261719 67.367188 33.324219 C 67.628906 33.347656 69.570312 33.507812 71.152344 33.949219 C 72.453125 34.308594 73.339844 35.011719 73.777344 35.425781 " fill-opacity="1" fill-rule="nonzero"/><path fill="#ffffff" d="M 73.945312 34.96875 C 73.945312 34.96875 74.148438 34.835938 74.367188 34.671875 C 74.527344 34.550781 74.742188 34.539062 74.910156 34.644531 C 74.914062 34.644531 74.914062 34.644531 74.917969 34.648438 C 75.988281 35.3125 76.671875 36.273438 76.664062 36.648438 C 76.664062 36.664062 76.660156 36.683594 76.65625 36.699219 C 76.605469 36.882812 76.460938 36.945312 76.296875 36.855469 C 76.265625 36.835938 75.164062 35.925781 75.164062 35.925781 C 75.074219 35.835938 74.957031 35.847656 74.933594 35.980469 L 74.917969 36.078125 C 74.890625 36.285156 74.765625 36.429688 74.660156 36.433594 C 74.542969 36.4375 74.417969 36.375 74.410156 36.164062 L 74.484375 35.472656 C 74.484375 35.355469 73.945312 34.96875 73.945312 34.96875 " fill-opacity="1" fill-rule="nonzero"/><path fill="#000000" d="M 74.394531 35.484375 L 74.398438 35.484375 Z M 75.222656 35.859375 C 75.648438 36.214844 76.300781 36.75 76.347656 36.78125 C 76.378906 36.800781 76.433594 36.820312 76.484375 36.800781 C 76.523438 36.785156 76.554688 36.742188 76.574219 36.679688 C 76.578125 36.664062 76.578125 36.652344 76.578125 36.644531 C 76.585938 36.304688 75.90625 35.363281 74.871094 34.722656 L 74.910156 34.644531 L 74.863281 34.71875 C 74.726562 34.632812 74.550781 34.640625 74.421875 34.738281 C 74.296875 34.832031 74.179688 34.917969 74.097656 34.972656 C 74.410156 35.207031 74.570312 35.375 74.570312 35.472656 L 74.570312 35.484375 L 74.5 36.164062 C 74.5 36.214844 74.511719 36.277344 74.550781 36.3125 C 74.582031 36.34375 74.625 36.347656 74.65625 36.34375 C 74.707031 36.34375 74.808594 36.246094 74.832031 36.066406 L 74.847656 35.964844 C 74.863281 35.878906 74.910156 35.8125 74.984375 35.789062 C 75.0625 35.765625 75.148438 35.789062 75.222656 35.859375 Z M 76.441406 36.984375 C 76.378906 36.984375 76.316406 36.964844 76.253906 36.929688 C 76.230469 36.914062 75.84375 36.601562 75.105469 35.992188 L 75.101562 35.984375 C 75.074219 35.957031 75.046875 35.953125 75.039062 35.957031 C 75.03125 35.957031 75.023438 35.972656 75.019531 35.992188 L 75.003906 36.089844 C 74.972656 36.324219 74.824219 36.511719 74.667969 36.519531 C 74.570312 36.523438 74.492188 36.496094 74.429688 36.441406 C 74.363281 36.378906 74.328125 36.285156 74.324219 36.164062 L 74.324219 36.152344 L 74.394531 35.480469 C 74.363281 35.40625 74.113281 35.195312 73.894531 35.039062 L 73.792969 34.964844 L 73.898438 34.894531 C 73.902344 34.890625 74.101562 34.761719 74.316406 34.601562 C 74.503906 34.457031 74.753906 34.445312 74.957031 34.570312 L 74.960938 34.574219 C 76 35.214844 76.761719 36.199219 76.753906 36.648438 C 76.753906 36.671875 76.75 36.699219 76.742188 36.722656 C 76.710938 36.839844 76.640625 36.925781 76.550781 36.964844 C 76.515625 36.976562 76.480469 36.984375 76.441406 36.984375 " fill-opacity="1" fill-rule="nonzero"/><path fill="#000000" d="M 61.761719 42.609375 C 60.972656 42.613281 60.300781 42.515625 59.777344 42.324219 C 58.804688 41.96875 58.601562 40.917969 58.734375 40.054688 C 58.8125 39.558594 58.902344 39.074219 58.992188 38.605469 C 59.054688 38.28125 59.109375 37.976562 59.160156 37.691406 C 59.492188 35.730469 59.179688 35.316406 58.96875 35.246094 C 58.265625 35.007812 56.476562 37.210938 55.34375 39.339844 C 54.839844 40.289062 54.53125 41.242188 54.425781 42.179688 C 54.421875 42.230469 54.375 42.269531 54.320312 42.261719 C 54.269531 42.257812 54.234375 42.210938 54.238281 42.160156 C 54.347656 41.199219 54.660156 40.222656 55.175781 39.253906 C 56.175781 37.375 58.089844 34.746094 59.027344 35.066406 C 59.515625 35.234375 59.617188 36.101562 59.34375 37.722656 C 59.296875 38.007812 59.238281 38.316406 59.175781 38.640625 C 59.085938 39.109375 58.996094 39.589844 58.917969 40.082031 C 58.796875 40.875 58.976562 41.832031 59.84375 42.148438 C 60.542969 42.402344 61.535156 42.484375 62.714844 42.378906 L 62.78125 42.375 C 63.65625 42.296875 64.566406 42.21875 65.285156 41.90625 C 65.558594 41.789062 65.859375 41.554688 66.0625 41.382812 C 66.210938 41.257812 66.28125 41.0625 66.25 40.867188 C 66.144531 40.175781 65.976562 38.828125 66.039062 37.585938 C 66.078125 36.746094 66.480469 33.875 67.109375 33.328125 C 67.195312 33.253906 67.28125 33.21875 67.375 33.230469 L 67.410156 33.230469 C 68.851562 33.359375 70.1875 33.582031 71.179688 33.859375 C 72.511719 34.226562 73.417969 34.957031 73.839844 35.359375 C 73.898438 35.414062 74.121094 35.351562 74.417969 35.128906 C 74.847656 34.808594 75.109375 34.417969 75.046875 34.292969 C 74.660156 33.539062 73.125 31.867188 71.363281 30.824219 C 71.320312 30.796875 71.304688 30.742188 71.332031 30.695312 C 71.359375 30.652344 71.414062 30.636719 71.460938 30.664062 C 73.273438 31.738281 74.804688 33.414062 75.214844 34.207031 C 75.367188 34.507812 74.890625 35.011719 74.53125 35.277344 C 74.355469 35.410156 73.921875 35.695312 73.710938 35.496094 C 73.300781 35.105469 72.421875 34.398438 71.128906 34.039062 C 70.148438 33.765625 68.824219 33.546875 67.394531 33.417969 L 67.355469 33.414062 C 67.316406 33.410156 67.277344 33.429688 67.230469 33.46875 C 66.710938 33.921875 66.277344 36.558594 66.226562 37.59375 C 66.164062 38.820312 66.332031 40.152344 66.4375 40.839844 C 66.476562 41.097656 66.378906 41.359375 66.1875 41.523438 C 65.972656 41.707031 65.652344 41.953125 65.359375 42.078125 C 64.613281 42.402344 63.6875 42.484375 62.796875 42.5625 L 62.730469 42.566406 C 62.394531 42.597656 62.066406 42.609375 61.761719 42.609375 " fill-opacity="1" fill-rule="nonzero"/><path fill="#000000" d="M 53.519531 44.53125 C 53.519531 44.53125 53.515625 44.53125 53.511719 44.53125 C 53.40625 44.527344 53.308594 44.46875 53.25 44.378906 C 52.914062 43.839844 51.3125 40.929688 52.851562 36.539062 C 53.789062 33.867188 57.28125 30.503906 58.871094 29.5625 C 59.054688 29.457031 60.046875 28.921875 61.730469 28.984375 C 61.757812 28.988281 61.785156 28.976562 61.804688 28.953125 C 62.046875 28.644531 62.417969 28.484375 62.941406 28.453125 C 64.039062 28.386719 64.78125 28.796875 65.136719 28.992188 C 65.21875 29.035156 65.308594 29.085938 65.335938 29.089844 C 65.71875 29.09375 66.226562 29.101562 66.78125 29.152344 C 66.832031 29.15625 66.871094 29.203125 66.867188 29.253906 C 66.863281 29.308594 66.816406 29.34375 66.765625 29.339844 C 66.21875 29.289062 65.710938 29.28125 65.332031 29.277344 C 65.265625 29.277344 65.1875 29.234375 65.046875 29.15625 C 64.679688 28.953125 63.996094 28.578125 62.949219 28.640625 C 62.484375 28.667969 62.15625 28.808594 61.949219 29.070312 C 61.894531 29.136719 61.8125 29.175781 61.722656 29.171875 C 60.09375 29.113281 59.140625 29.621094 58.96875 29.726562 C 57.398438 30.65625 53.949219 33.96875 53.027344 36.601562 C 52.421875 38.328125 52.246094 40.023438 52.5 41.636719 C 52.730469 43.105469 53.253906 44.03125 53.410156 44.277344 C 53.433594 44.316406 53.472656 44.339844 53.515625 44.34375 C 53.5625 44.34375 53.601562 44.324219 53.628906 44.285156 L 54.121094 43.574219 C 54.148438 43.53125 54.207031 43.519531 54.25 43.550781 C 54.292969 43.582031 54.304688 43.640625 54.273438 43.679688 L 53.78125 44.394531 C 53.722656 44.480469 53.625 44.53125 53.519531 44.53125 " fill-opacity="1" fill-rule="nonzero"/><path fill="#ff004d" d="M 84.507812 42.042969 L 60.449219 53.445312 C 59.679688 53.8125 58.753906 53.460938 58.421875 52.671875 L 52.421875 38.488281 C 52.105469 37.746094 52.433594 36.890625 53.160156 36.542969 L 77.21875 25.140625 C 77.992188 24.773438 78.914062 25.125 79.246094 25.914062 L 85.25 40.097656 C 85.5625 40.839844 85.238281 41.695312 84.507812 42.042969 " fill-opacity="1" fill-rule="nonzero"/><path fill="#ff004d" d="M 61.855469 42.1875 L 57.90625 44.0625 C 57.714844 44.152344 57.488281 44.070312 57.398438 43.878906 L 56.117188 41.171875 C 56.027344 40.984375 56.105469 40.757812 56.296875 40.664062 L 60.246094 38.792969 C 60.4375 38.703125 60.664062 38.785156 60.753906 38.976562 L 62.035156 41.683594 C 62.125 41.871094 62.046875 42.097656 61.855469 42.1875 " fill-opacity="1" fill-rule="nonzero"/><path fill="#ff004d" d="M 63.453125 45.542969 L 59.066406 47.621094 C 58.957031 47.671875 58.828125 47.628906 58.777344 47.519531 L 58.371094 46.664062 C 58.324219 46.558594 58.367188 46.429688 58.476562 46.378906 L 62.863281 44.300781 C 62.96875 44.25 63.097656 44.292969 63.148438 44.402344 L 63.554688 45.257812 C 63.605469 45.363281 63.558594 45.492188 63.453125 45.542969 " fill-opacity="1" fill-rule="nonzero"/><path fill="#000000" d="M 68.347656 47.746094 L 60.246094 51.585938 C 60.121094 51.648438 59.96875 51.59375 59.910156 51.46875 L 59.777344 51.1875 C 59.71875 51.0625 59.773438 50.914062 59.898438 50.851562 L 68 47.011719 C 68.125 46.953125 68.273438 47.007812 68.332031 47.132812 L 68.464844 47.414062 C 68.527344 47.539062 68.472656 47.6875 68.347656 47.746094 " fill-opacity="1" fill-rule="nonzero"/><path fill="#000000" d="M 83.222656 40.695312 L 80.449219 42.011719 C 80.382812 42.042969 80.308594 42.015625 80.277344 41.953125 L 80.039062 41.445312 C 80.007812 41.382812 80.035156 41.308594 80.097656 41.277344 L 82.875 39.960938 C 82.9375 39.933594 83.011719 39.960938 83.042969 40.023438 L 83.28125 40.527344 C 83.3125 40.589844 83.285156 40.667969 83.222656 40.695312 " fill-opacity="1" fill-rule="nonzero"/><path fill="#ff004d" d="M 69.515625 42.667969 L 65.128906 44.75 C 65.019531 44.800781 64.894531 44.753906 64.84375 44.648438 L 64.4375 43.789062 C 64.386719 43.683594 64.433594 43.554688 64.539062 43.503906 L 68.925781 41.425781 C 69.03125 41.375 69.160156 41.417969 69.210938 41.527344 L 69.617188 42.382812 C 69.667969 42.488281 69.621094 42.617188 69.515625 42.667969 " fill-opacity="1" fill-rule="nonzero"/><path fill="#ff004d" d="M 75.578125 39.792969 L 71.191406 41.875 C 71.085938 41.925781 70.957031 41.878906 70.90625 41.773438 L 70.5 40.914062 C 70.449219 40.808594 70.496094 40.679688 70.601562 40.628906 L 74.988281 38.550781 C 75.097656 38.5 75.222656 38.546875 75.273438 38.652344 L 75.679688 39.507812 C 75.730469 39.617188 75.6875 39.742188 75.578125 39.792969 " fill-opacity="1" fill-rule="nonzero"/><path fill="#ff004d" d="M 81.644531 36.921875 L 77.257812 39 C 77.148438 39.050781 77.019531 39.003906 76.96875 38.898438 L 76.566406 38.042969 C 76.515625 37.933594 76.558594 37.804688 76.667969 37.753906 L 81.054688 35.675781 C 81.160156 35.625 81.289062 35.671875 81.339844 35.777344 L 81.746094 36.636719 C 81.796875 36.742188 81.75 36.871094 81.644531 36.921875 " fill-opacity="1" fill-rule="nonzero"/><path fill="#000000" d="M 77.726562 28.761719 L 72.433594 31.269531 C 72.304688 31.332031 72.152344 31.277344 72.089844 31.148438 L 71.601562 30.113281 C 71.539062 29.984375 71.59375 29.832031 71.722656 29.769531 L 77.015625 27.261719 C 77.144531 27.203125 77.300781 27.257812 77.359375 27.386719 L 77.851562 28.417969 C 77.910156 28.546875 77.855469 28.703125 77.726562 28.761719 " fill-opacity="1" fill-rule="nonzero"/><path fill="#000000" d="M 59.808594 53.683594 C 59.617188 53.683594 59.421875 53.648438 59.238281 53.578125 C 58.828125 53.421875 58.507812 53.113281 58.335938 52.707031 L 54.496094 43.617188 C 54.476562 43.566406 54.496094 43.511719 54.546875 43.492188 C 54.59375 43.472656 54.648438 43.496094 54.667969 43.542969 L 58.507812 52.636719 C 58.660156 52.992188 58.941406 53.265625 59.304688 53.402344 C 59.667969 53.542969 60.058594 53.527344 60.410156 53.359375 L 84.46875 41.957031 C 85.152344 41.632812 85.457031 40.832031 85.164062 40.132812 L 79.160156 25.949219 C 79.011719 25.59375 78.726562 25.320312 78.363281 25.183594 C 78.003906 25.042969 77.609375 25.058594 77.257812 25.226562 L 54.054688 36.226562 C 54.007812 36.246094 53.953125 36.226562 53.929688 36.179688 C 53.90625 36.132812 53.925781 36.078125 53.972656 36.054688 L 77.179688 25.054688 C 77.574219 24.867188 78.019531 24.851562 78.433594 25.007812 C 78.84375 25.164062 79.164062 25.472656 79.335938 25.875 L 85.335938 40.058594 C 85.671875 40.851562 85.324219 41.757812 84.546875 42.125 L 60.492188 53.53125 C 60.273438 53.632812 60.042969 53.683594 59.808594 53.683594 " fill-opacity="1" fill-rule="nonzero"/><path fill="#ffffff" d="M 54.519531 43.160156 C 54.519531 43.160156 55.195312 43.441406 55.402344 43.621094 C 55.609375 43.796875 56.230469 44.3125 56.25 44.484375 C 56.273438 44.65625 56.003906 44.761719 55.585938 44.429688 C 55.355469 44.246094 55.203125 44.140625 55.109375 44.085938 C 55.078125 44.066406 55.042969 44.101562 55.0625 44.132812 C 55.15625 44.304688 55.355469 44.640625 55.554688 44.796875 C 55.824219 45.011719 56.613281 45.53125 56.429688 45.890625 C 56.265625 46.222656 55.566406 46.070312 54.75 45.53125 C 54.59375 45.425781 54.457031 45.292969 54.34375 45.136719 C 54.167969 44.894531 53.886719 44.519531 53.6875 44.363281 L 54.519531 43.160156 " fill-opacity="1" fill-rule="nonzero"/><path fill="#000000" d="M 53.8125 44.347656 C 54.007812 44.527344 54.246094 44.847656 54.417969 45.082031 C 54.527344 45.234375 54.65625 45.359375 54.800781 45.453125 C 55.386719 45.839844 55.925781 46.03125 56.203125 45.957031 C 56.273438 45.9375 56.320312 45.902344 56.347656 45.851562 C 56.46875 45.605469 55.902344 45.179688 55.632812 44.976562 C 55.578125 44.9375 55.53125 44.902344 55.496094 44.871094 C 55.289062 44.707031 55.082031 44.367188 54.980469 44.179688 C 54.949219 44.128906 54.960938 44.0625 55.003906 44.023438 C 55.046875 43.980469 55.109375 43.976562 55.160156 44.007812 C 55.25 44.0625 55.410156 44.167969 55.644531 44.359375 C 55.910156 44.570312 56.082031 44.566406 56.136719 44.539062 C 56.152344 44.527344 56.160156 44.515625 56.15625 44.496094 C 56.148438 44.433594 56.003906 44.25 55.378906 43.722656 L 55.339844 43.691406 C 55.195312 43.570312 54.773438 43.371094 54.554688 43.277344 Z M 56.074219 46.160156 C 55.730469 46.160156 55.234375 45.964844 54.699219 45.609375 C 54.535156 45.503906 54.390625 45.363281 54.265625 45.191406 C 54.160156 45.046875 53.835938 44.605469 53.628906 44.4375 C 53.589844 44.40625 53.582031 44.351562 53.609375 44.308594 L 54.441406 43.105469 C 54.46875 43.070312 54.515625 43.054688 54.554688 43.074219 C 54.585938 43.085938 55.246094 43.363281 55.464844 43.546875 L 55.5 43.578125 C 56.089844 44.078125 56.328125 44.328125 56.34375 44.472656 C 56.355469 44.570312 56.3125 44.65625 56.226562 44.703125 C 56.0625 44.796875 55.800781 44.722656 55.527344 44.503906 C 55.429688 44.425781 55.347656 44.363281 55.277344 44.3125 C 55.371094 44.460938 55.496094 44.628906 55.613281 44.722656 C 55.648438 44.753906 55.695312 44.789062 55.746094 44.824219 C 56.105469 45.097656 56.707031 45.550781 56.515625 45.933594 C 56.464844 46.035156 56.375 46.105469 56.253906 46.136719 C 56.199219 46.152344 56.140625 46.160156 56.074219 46.160156 " fill-opacity="1" fill-rule="nonzero"/><path fill="#000000" d="M 93.589844 30.484375 C 93.589844 32.769531 91.738281 34.621094 89.457031 34.621094 C 87.171875 34.621094 85.320312 32.769531 85.320312 30.484375 C 85.320312 28.199219 87.171875 26.347656 89.457031 26.347656 C 91.738281 26.347656 93.589844 28.199219 93.589844 30.484375 " fill-opacity="1" fill-rule="nonzero"/><path fill="#ff004d" d="M 93.644531 30.363281 C 93.644531 32.578125 91.847656 34.375 89.632812 34.375 C 87.414062 34.375 85.617188 32.578125 85.617188 30.363281 C 85.617188 28.144531 87.414062 26.347656 89.632812 26.347656 C 91.847656 26.347656 93.644531 28.144531 93.644531 30.363281 " fill-opacity="1" fill-rule="nonzero"/><path fill="#000000" d="M 89.632812 26.441406 C 87.46875 26.441406 85.710938 28.199219 85.710938 30.363281 C 85.710938 32.523438 87.46875 34.28125 89.632812 34.28125 C 91.792969 34.28125 93.550781 32.523438 93.550781 30.363281 C 93.550781 28.199219 91.792969 26.441406 89.632812 26.441406 Z M 89.632812 34.46875 C 87.367188 34.46875 85.523438 32.625 85.523438 30.363281 C 85.523438 28.097656 87.367188 26.253906 89.632812 26.253906 C 91.894531 26.253906 93.738281 28.097656 93.738281 30.363281 C 93.738281 32.625 91.894531 34.46875 89.632812 34.46875 " fill-opacity="1" fill-rule="nonzero"/><path fill="#ffffff" d="M 93 30.363281 C 93 32.222656 91.492188 33.730469 89.632812 33.730469 C 87.773438 33.730469 86.265625 32.222656 86.265625 30.363281 C 86.265625 28.5 87.773438 26.992188 89.632812 26.992188 C 91.492188 26.992188 93 28.5 93 30.363281 " fill-opacity="1" fill-rule="nonzero"/><path fill="#000000" d="M 92.464844 32.28125 C 92.445312 32.28125 92.425781 32.273438 92.410156 32.265625 C 92.367188 32.238281 92.355469 32.179688 92.382812 32.136719 C 92.554688 31.871094 92.683594 31.585938 92.773438 31.289062 C 92.789062 31.238281 92.839844 31.210938 92.890625 31.222656 C 92.9375 31.238281 92.96875 31.289062 92.953125 31.339844 C 92.859375 31.65625 92.722656 31.957031 92.542969 32.238281 C 92.523438 32.265625 92.492188 32.28125 92.464844 32.28125 " fill-opacity="1" fill-rule="nonzero"/><path fill="#000000" d="M 92.664062 28.988281 C 92.628906 28.988281 92.59375 28.96875 92.578125 28.933594 C 92.027344 27.796875 90.898438 27.085938 89.632812 27.085938 C 88.59375 27.085938 87.605469 27.589844 86.988281 28.429688 C 86.957031 28.46875 86.898438 28.480469 86.859375 28.449219 C 86.816406 28.417969 86.808594 28.359375 86.839844 28.316406 C 87.488281 27.429688 88.53125 26.898438 89.632812 26.898438 C 90.949219 26.898438 92.171875 27.664062 92.746094 28.851562 C 92.769531 28.898438 92.75 28.953125 92.703125 28.976562 C 92.691406 28.984375 92.675781 28.988281 92.664062 28.988281 " fill-opacity="1" fill-rule="nonzero"/><path fill="#000000" d="M 89.632812 33.824219 C 87.722656 33.824219 86.171875 32.269531 86.171875 30.363281 C 86.171875 29.769531 86.324219 29.183594 86.609375 28.667969 C 86.636719 28.625 86.691406 28.609375 86.738281 28.632812 C 86.785156 28.660156 86.800781 28.714844 86.773438 28.761719 C 86.503906 29.246094 86.359375 29.800781 86.359375 30.363281 C 86.359375 32.167969 87.828125 33.636719 89.632812 33.636719 C 89.683594 33.636719 89.726562 33.679688 89.726562 33.730469 C 89.726562 33.78125 89.683594 33.824219 89.632812 33.824219 " fill-opacity="1" fill-rule="nonzero"/><path fill="#1d2c54" d="M 89.324219 32.738281 L 89.324219 32.1875 C 88.933594 32.167969 88.554688 32.0625 88.332031 31.933594 L 88.507812 31.253906 C 88.75 31.386719 89.09375 31.511719 89.472656 31.511719 C 89.804688 31.511719 90.035156 31.382812 90.035156 31.148438 C 90.035156 30.925781 89.847656 30.789062 89.414062 30.640625 C 88.792969 30.429688 88.367188 30.140625 88.367188 29.574219 C 88.367188 29.0625 88.726562 28.660156 89.351562 28.539062 L 89.351562 27.984375 L 89.921875 27.984375 L 89.921875 28.496094 C 90.3125 28.515625 90.574219 28.597656 90.769531 28.6875 L 90.597656 29.347656 C 90.445312 29.285156 90.179688 29.148438 89.757812 29.148438 C 89.382812 29.148438 89.257812 29.3125 89.257812 29.476562 C 89.257812 29.667969 89.460938 29.789062 89.957031 29.976562 C 90.652344 30.222656 90.929688 30.542969 90.929688 31.066406 C 90.929688 31.585938 90.5625 32.027344 89.894531 32.144531 L 89.894531 32.738281 L 89.324219 32.738281 " fill-opacity="1" fill-rule="nonzero"/><path fill="#000000" d="M 100.476562 21.273438 C 100.476562 23.972656 98.289062 26.160156 95.589844 26.160156 C 92.894531 26.160156 90.707031 23.972656 90.707031 21.273438 C 90.707031 18.574219 92.894531 16.390625 95.589844 16.390625 C 98.289062 16.390625 100.476562 18.574219 100.476562 21.273438 " fill-opacity="1" fill-rule="nonzero"/><path fill="#ff004d" d="M 100.539062 21.628906 C 100.539062 24.246094 98.417969 26.371094 95.800781 26.371094 C 93.183594 26.371094 91.058594 24.246094 91.058594 21.628906 C 91.058594 19.011719 93.183594 16.890625 95.800781 16.890625 C 98.417969 16.890625 100.539062 19.011719 100.539062 21.628906 " fill-opacity="1" fill-rule="nonzero"/><path fill="#000000" d="M 95.800781 16.984375 C 93.238281 16.984375 91.152344 19.066406 91.152344 21.628906 C 91.152344 24.191406 93.238281 26.277344 95.800781 26.277344 C 98.363281 26.277344 100.445312 24.191406 100.445312 21.628906 C 100.445312 19.066406 98.363281 16.984375 95.800781 16.984375 Z M 95.800781 26.464844 C 93.132812 26.464844 90.964844 24.296875 90.964844 21.628906 C 90.964844 18.964844 93.132812 16.796875 95.800781 16.796875 C 98.464844 16.796875 100.632812 18.964844 100.632812 21.628906 C 100.632812 24.296875 98.464844 26.464844 95.800781 26.464844 " fill-opacity="1" fill-rule="nonzero"/><path fill="#ffffff" d="M 99.777344 21.753906 C 99.777344 23.953125 97.996094 25.734375 95.800781 25.734375 C 93.605469 25.734375 91.824219 23.953125 91.824219 21.753906 C 91.824219 19.558594 93.605469 17.777344 95.800781 17.777344 C 97.996094 17.777344 99.777344 19.558594 99.777344 21.753906 " fill-opacity="1" fill-rule="nonzero"/><path fill="#000000" d="M 99.144531 24.003906 C 99.125 24.003906 99.109375 24 99.09375 23.988281 C 99.050781 23.960938 99.035156 23.902344 99.066406 23.859375 C 99.265625 23.546875 99.421875 23.207031 99.527344 22.855469 C 99.539062 22.804688 99.59375 22.777344 99.644531 22.789062 C 99.691406 22.804688 99.722656 22.855469 99.707031 22.90625 C 99.597656 23.277344 99.433594 23.632812 99.222656 23.960938 C 99.203125 23.988281 99.175781 24.003906 99.144531 24.003906 " fill-opacity="1" fill-rule="nonzero"/><path fill="#000000" d="M 99.378906 20.113281 C 99.34375 20.113281 99.3125 20.09375 99.296875 20.0625 C 98.640625 18.710938 97.300781 17.871094 95.800781 17.871094 C 94.566406 17.871094 93.394531 18.464844 92.667969 19.460938 C 92.636719 19.503906 92.574219 19.511719 92.535156 19.480469 C 92.492188 19.449219 92.484375 19.390625 92.515625 19.351562 C 93.28125 18.304688 94.507812 17.683594 95.800781 17.683594 C 97.347656 17.683594 98.789062 18.585938 99.464844 19.980469 C 99.488281 20.027344 99.46875 20.082031 99.421875 20.105469 C 99.410156 20.113281 99.394531 20.113281 99.378906 20.113281 " fill-opacity="1" fill-rule="nonzero"/><path fill="#000000" d="M 95.800781 25.828125 C 93.554688 25.828125 91.726562 24 91.726562 21.753906 C 91.726562 21.058594 91.90625 20.371094 92.246094 19.765625 C 92.273438 19.71875 92.328125 19.703125 92.375 19.730469 C 92.421875 19.753906 92.4375 19.8125 92.410156 19.855469 C 92.085938 20.433594 91.914062 21.089844 91.914062 21.753906 C 91.914062 23.898438 93.65625 25.640625 95.800781 25.640625 C 95.851562 25.640625 95.894531 25.679688 95.894531 25.734375 C 95.894531 25.785156 95.851562 25.828125 95.800781 25.828125 " fill-opacity="1" fill-rule="nonzero"/><path fill="#1d2c54" d="M 95.496094 24.5 L 95.496094 23.847656 C 95.035156 23.828125 94.589844 23.703125 94.328125 23.550781 L 94.535156 22.746094 C 94.824219 22.902344 95.230469 23.046875 95.675781 23.046875 C 96.070312 23.046875 96.335938 22.898438 96.335938 22.621094 C 96.335938 22.359375 96.117188 22.195312 95.609375 22.023438 C 94.871094 21.773438 94.367188 21.429688 94.367188 20.761719 C 94.367188 20.15625 94.796875 19.683594 95.53125 19.539062 L 95.53125 18.882812 L 96.207031 18.882812 L 96.207031 19.488281 C 96.667969 19.511719 96.976562 19.605469 97.203125 19.71875 L 97.003906 20.496094 C 96.828125 20.417969 96.507812 20.261719 96.015625 20.261719 C 95.566406 20.261719 95.421875 20.453125 95.421875 20.648438 C 95.421875 20.875 95.664062 21.019531 96.246094 21.238281 C 97.066406 21.527344 97.398438 21.90625 97.398438 22.527344 C 97.398438 23.136719 96.964844 23.660156 96.171875 23.800781 L 96.171875 24.5 L 95.496094 24.5 " fill-opacity="1" fill-rule="nonzero"/><path fill="#000000" d="M 60.394531 20.34375 C 60.371094 20.34375 60.34375 20.332031 60.324219 20.3125 C 60.289062 20.273438 60.296875 20.214844 60.335938 20.179688 C 60.761719 19.8125 61.207031 19.457031 61.664062 19.125 C 61.707031 19.09375 61.765625 19.105469 61.796875 19.144531 C 61.828125 19.1875 61.816406 19.246094 61.777344 19.277344 C 61.324219 19.605469 60.878906 19.957031 60.457031 20.320312 C 60.4375 20.335938 60.417969 20.34375 60.394531 20.34375 " fill-opacity="1" fill-rule="nonzero"/><path fill="#000000" d="M 54.777344 28.269531 C 54.769531 28.269531 54.757812 28.265625 54.746094 28.261719 C 54.695312 28.242188 54.671875 28.1875 54.691406 28.140625 C 55.152344 26.96875 55.730469 25.828125 56.40625 24.753906 C 57.488281 23.035156 58.8125 21.496094 60.335938 20.179688 C 60.375 20.144531 60.433594 20.148438 60.46875 20.1875 C 60.5 20.226562 60.496094 20.289062 60.457031 20.320312 C 58.949219 21.625 57.636719 23.148438 56.566406 24.855469 C 55.894531 25.917969 55.324219 27.046875 54.867188 28.210938 C 54.851562 28.246094 54.816406 28.269531 54.777344 28.269531 " fill-opacity="1" fill-rule="nonzero"/><path fill="#000000" d="M 60.691406 17.746094 C 60.664062 17.746094 60.636719 17.734375 60.617188 17.707031 C 60.585938 17.667969 60.59375 17.609375 60.636719 17.578125 C 60.871094 17.402344 61.113281 17.230469 61.359375 17.066406 C 61.402344 17.035156 61.460938 17.046875 61.488281 17.089844 C 61.519531 17.132812 61.507812 17.191406 61.464844 17.21875 C 61.222656 17.382812 60.980469 17.554688 60.75 17.726562 C 60.730469 17.742188 60.710938 17.746094 60.691406 17.746094 " fill-opacity="1" fill-rule="nonzero"/><path fill="#000000" d="M 53.367188 27.585938 C 53.355469 27.585938 53.34375 27.582031 53.332031 27.578125 C 53.285156 27.5625 53.261719 27.507812 53.277344 27.457031 C 53.792969 26.035156 54.46875 24.660156 55.28125 23.367188 C 56.703125 21.109375 58.503906 19.160156 60.636719 17.578125 C 60.679688 17.546875 60.738281 17.554688 60.769531 17.597656 C 60.800781 17.636719 60.789062 17.699219 60.75 17.726562 C 58.632812 19.296875 56.847656 21.226562 55.441406 23.46875 C 54.636719 24.746094 53.96875 26.113281 53.453125 27.523438 C 53.441406 27.558594 53.40625 27.585938 53.367188 27.585938 " fill-opacity="1" fill-rule="nonzero"/><path fill="#000000" d="M 53.140625 28.960938 C 52.957031 28.960938 52.785156 29.066406 52.710938 29.246094 C 52.609375 29.480469 52.722656 29.757812 52.957031 29.855469 C 53.074219 29.90625 53.199219 29.90625 53.316406 29.859375 C 53.429688 29.8125 53.519531 29.722656 53.570312 29.609375 C 53.617188 29.492188 53.617188 29.367188 53.570312 29.253906 C 53.523438 29.136719 53.4375 29.046875 53.320312 28.996094 C 53.261719 28.972656 53.199219 28.960938 53.140625 28.960938 Z M 53.140625 30.082031 C 53.054688 30.082031 52.96875 30.0625 52.886719 30.03125 C 52.726562 29.960938 52.601562 29.835938 52.535156 29.671875 C 52.46875 29.511719 52.46875 29.332031 52.539062 29.171875 C 52.679688 28.839844 53.0625 28.683594 53.394531 28.824219 C 53.554688 28.894531 53.679688 29.019531 53.746094 29.179688 C 53.8125 29.34375 53.808594 29.519531 53.742188 29.679688 C 53.675781 29.84375 53.546875 29.96875 53.386719 30.03125 C 53.304688 30.066406 53.222656 30.082031 53.140625 30.082031 " fill-opacity="1" fill-rule="nonzero"/><path fill="#000000" d="M 62.4375 16.324219 L 63.613281 16.820312 L 63.519531 15.554688 Z M 63.714844 17.0625 C 63.703125 17.0625 63.691406 17.058594 63.679688 17.054688 L 62.210938 16.433594 C 62.179688 16.417969 62.15625 16.390625 62.152344 16.355469 C 62.148438 16.324219 62.164062 16.289062 62.191406 16.269531 L 63.546875 15.304688 C 63.574219 15.285156 63.609375 15.28125 63.640625 15.296875 C 63.671875 15.3125 63.691406 15.339844 63.695312 15.375 L 63.808594 16.960938 C 63.8125 16.992188 63.796875 17.023438 63.769531 17.042969 C 63.753906 17.054688 63.734375 17.0625 63.714844 17.0625 " fill-opacity="1" fill-rule="nonzero"/><path fill="#000000" d="M 97.957031 30.886719 C 98.039062 31.117188 98.289062 31.242188 98.519531 31.160156 C 98.75 31.082031 98.871094 30.828125 98.789062 30.597656 C 98.710938 30.367188 98.460938 30.246094 98.230469 30.328125 C 98 30.40625 97.878906 30.660156 97.957031 30.886719 Z M 98.375 31.371094 C 98.113281 31.371094 97.871094 31.210938 97.78125 30.949219 C 97.667969 30.621094 97.839844 30.261719 98.167969 30.148438 C 98.496094 30.035156 98.855469 30.210938 98.96875 30.539062 C 99.082031 30.863281 98.910156 31.222656 98.582031 31.339844 C 98.511719 31.363281 98.441406 31.371094 98.375 31.371094 " fill-opacity="1" fill-rule="nonzero"/><path fill="#000000" d="M 96.207031 32.261719 C 96.175781 32.261719 96.148438 32.265625 96.117188 32.273438 C 96.050781 32.296875 95.996094 32.347656 95.964844 32.410156 C 95.933594 32.472656 95.929688 32.546875 95.953125 32.613281 C 95.976562 32.679688 96.027344 32.734375 96.089844 32.765625 C 96.152344 32.796875 96.226562 32.800781 96.292969 32.777344 C 96.359375 32.753906 96.414062 32.707031 96.445312 32.640625 C 96.476562 32.578125 96.480469 32.503906 96.457031 32.4375 C 96.433594 32.371094 96.386719 32.316406 96.320312 32.285156 C 96.285156 32.269531 96.246094 32.261719 96.207031 32.261719 Z M 96.203125 32.980469 C 96.136719 32.980469 96.070312 32.964844 96.007812 32.933594 C 95.898438 32.878906 95.816406 32.789062 95.777344 32.675781 C 95.738281 32.558594 95.746094 32.4375 95.796875 32.328125 C 95.851562 32.21875 95.941406 32.136719 96.058594 32.097656 C 96.171875 32.058594 96.292969 32.0625 96.402344 32.117188 C 96.511719 32.171875 96.59375 32.261719 96.632812 32.375 C 96.671875 32.492188 96.667969 32.613281 96.613281 32.722656 C 96.558594 32.832031 96.46875 32.914062 96.355469 32.953125 C 96.304688 32.96875 96.253906 32.980469 96.203125 32.980469 " fill-opacity="1" fill-rule="nonzero"/><path fill="#000000" d="M 98.84375 27.582031 C 98.832031 27.582031 98.816406 27.578125 98.804688 27.574219 L 98.449219 27.402344 C 98.402344 27.378906 98.382812 27.320312 98.40625 27.273438 C 98.429688 27.226562 98.484375 27.207031 98.53125 27.230469 L 98.886719 27.40625 C 98.933594 27.425781 98.953125 27.484375 98.929688 27.53125 C 98.914062 27.5625 98.878906 27.582031 98.84375 27.582031 " fill-opacity="1" fill-rule="nonzero"/><path fill="#000000" d="M 100.082031 28.1875 C 100.070312 28.1875 100.054688 28.183594 100.042969 28.179688 L 99.6875 28.003906 C 99.640625 27.984375 99.621094 27.925781 99.644531 27.878906 C 99.667969 27.832031 99.722656 27.8125 99.769531 27.835938 L 100.125 28.007812 C 100.171875 28.03125 100.191406 28.089844 100.167969 28.136719 C 100.152344 28.167969 100.117188 28.1875 100.082031 28.1875 " fill-opacity="1" fill-rule="nonzero"/><path fill="#000000" d="M 98.902344 28.597656 C 98.890625 28.597656 98.875 28.59375 98.863281 28.589844 C 98.816406 28.566406 98.796875 28.511719 98.816406 28.464844 L 98.988281 28.109375 C 99.011719 28.0625 99.066406 28.042969 99.113281 28.0625 C 99.160156 28.085938 99.179688 28.144531 99.15625 28.191406 L 98.988281 28.542969 C 98.972656 28.578125 98.9375 28.597656 98.902344 28.597656 " fill-opacity="1" fill-rule="nonzero"/><path fill="#000000" d="M 99.5 27.355469 C 99.484375 27.355469 99.472656 27.351562 99.460938 27.347656 C 99.414062 27.324219 99.394531 27.265625 99.414062 27.222656 L 99.585938 26.867188 C 99.609375 26.820312 99.664062 26.800781 99.710938 26.820312 C 99.757812 26.84375 99.777344 26.898438 99.753906 26.945312 L 99.585938 27.300781 C 99.570312 27.335938 99.535156 27.355469 99.5 27.355469 " fill-opacity="1" fill-rule="nonzero"/><g clip-path="url(#d87d7577cb)"><g clip-path="url(#b821bd3454)"><path fill="#1d2c54" d="M 93.15625 59.203125 L 95.894531 59.203125 L 95.894531 61.808594 L 93.15625 61.808594 Z M 93.15625 59.203125 " fill-opacity="1" fill-rule="nonzero"/></g></g></svg>