<svg xmlns="http://www.w3.org/2000/svg" xmlns:xlink="http://www.w3.org/1999/xlink" width="200" zoomAndPan="magnify" viewBox="0 0 150 74.999997" height="100" preserveAspectRatio="xMidYMid meet" version="1.0"><defs><clipPath id="a6f47ce1e1"><path d="M 47.136719 9.636719 L 102.636719 9.636719 L 102.636719 65.136719 L 47.136719 65.136719 Z M 47.136719 9.636719 " clip-rule="nonzero"/></clipPath><clipPath id="d2297d92c8"><path d="M 59.65625 47.527344 L 63.90625 47.527344 L 63.90625 51.574219 L 59.65625 51.574219 Z M 59.65625 47.527344 " clip-rule="nonzero"/></clipPath><clipPath id="a0f1a6e328"><path d="M 61.777344 47.527344 L 62.277344 49.074219 L 63.898438 49.074219 L 62.585938 50.027344 L 63.089844 51.574219 L 61.777344 50.617188 L 60.464844 51.574219 L 60.964844 50.027344 L 59.65625 49.074219 L 61.277344 49.074219 Z M 61.777344 47.527344 " clip-rule="nonzero"/></clipPath></defs><rect x="-15" width="180" fill="#ffffff" y="-7.5" height="89.999996" fill-opacity="1"/><rect x="-15" width="180" fill="#ffffff" y="-7.5" height="89.999996" fill-opacity="1"/><g clip-path="url(#a6f47ce1e1)"><path fill="#ff004d" d="M 102.859375 37.496094 C 102.859375 52.886719 90.386719 65.359375 74.996094 65.359375 C 59.613281 65.359375 47.136719 52.886719 47.136719 37.496094 C 47.136719 22.113281 59.613281 9.636719 74.996094 9.636719 C 90.386719 9.636719 102.859375 22.113281 102.859375 37.496094 " fill-opacity="1" fill-rule="nonzero"/></g><path fill="#1d2c54" d="M 71.09375 29.769531 C 71.0625 29.773438 71.03125 29.773438 71 29.773438 C 70.972656 29.773438 70.9375 29.773438 70.910156 29.769531 C 70.296875 29.761719 69.726562 29.570312 69.234375 29.265625 C 68.9375 29.414062 68.558594 29.601562 68.140625 29.808594 C 68.140625 29.8125 68.148438 29.820312 68.148438 29.824219 C 68.359375 30.449219 69.054688 31.898438 71.007812 31.898438 C 73.035156 31.898438 73.710938 30.269531 73.871094 29.769531 C 73.875 29.761719 73.878906 29.753906 73.882812 29.746094 C 73.472656 29.546875 73.105469 29.363281 72.828125 29.226562 C 72.328125 29.558594 71.730469 29.757812 71.09375 29.769531 " fill-opacity="1" fill-rule="nonzero"/><path fill="#1d2c54" d="M 67.972656 25.832031 L 67.972656 26.417969 C 67.972656 28.058594 69.285156 29.429688 70.929688 29.449219 C 70.953125 29.457031 70.976562 29.457031 71 29.457031 C 71.027344 29.457031 71.050781 29.457031 71.070312 29.449219 C 72.71875 29.429688 74.027344 28.058594 74.027344 26.417969 L 74.027344 25.832031 C 74.027344 25.832031 74.550781 25.941406 74.566406 25.023438 C 74.585938 24.109375 74.027344 24.167969 74.027344 24.167969 L 74.027344 22.554688 C 74.027344 21.921875 73.511719 21.40625 72.875 21.40625 L 69.125 21.40625 C 68.488281 21.40625 67.972656 21.921875 67.972656 22.554688 L 67.972656 24.167969 C 67.972656 24.167969 67.429688 24.265625 67.449219 25.179688 C 67.464844 26.09375 67.972656 25.832031 67.972656 25.832031 " fill-opacity="1" fill-rule="nonzero"/><path fill="#1d2c54" d="M 88.105469 36.3125 L 79.148438 36.3125 L 79.148438 31.078125 C 79.148438 31.023438 79.128906 30.972656 79.089844 30.933594 L 76.429688 28.273438 L 77.515625 27.230469 C 77.597656 27.152344 77.597656 27.023438 77.519531 26.941406 C 77.445312 26.855469 77.3125 26.855469 77.230469 26.933594 L 74.855469 29.207031 C 74.773438 29.285156 74.769531 29.417969 74.847656 29.5 C 74.890625 29.542969 74.945312 29.5625 74.996094 29.5625 C 75.050781 29.5625 75.101562 29.546875 75.140625 29.507812 L 76.128906 28.558594 L 78.738281 31.167969 L 78.738281 36.3125 L 77.8125 36.3125 C 77.800781 35.375 77.660156 31.535156 76.492188 31 C 75.890625 30.726562 74.984375 30.289062 74.167969 29.886719 C 73.980469 30.460938 73.226562 32.21875 71.007812 32.21875 C 68.808594 32.21875 68.042969 30.503906 67.851562 29.949219 C 67.070312 30.332031 66.222656 30.738281 65.65625 31 C 64.484375 31.535156 64.347656 35.375 64.328125 36.3125 L 61.890625 36.3125 C 61.777344 36.3125 61.683594 36.402344 61.683594 36.519531 C 61.683594 36.632812 61.777344 36.726562 61.890625 36.726562 L 66.679688 36.726562 L 64.050781 42.277344 C 64 42.382812 64.042969 42.503906 64.148438 42.554688 C 64.175781 42.566406 64.203125 42.574219 64.234375 42.574219 C 64.3125 42.574219 64.386719 42.527344 64.421875 42.457031 L 67.136719 36.726562 L 82.859375 36.726562 L 85.574219 42.457031 C 85.609375 42.527344 85.683594 42.574219 85.761719 42.574219 C 85.792969 42.574219 85.820312 42.566406 85.847656 42.554688 C 85.953125 42.503906 85.996094 42.382812 85.945312 42.277344 L 83.316406 36.726562 L 88.105469 36.726562 C 88.21875 36.726562 88.3125 36.632812 88.3125 36.519531 C 88.3125 36.402344 88.21875 36.3125 88.105469 36.3125 " fill-opacity="1" fill-rule="nonzero"/><path fill="#1d2c54" d="M 82.160156 22.664062 C 82.160156 22.550781 82.25 22.457031 82.367188 22.457031 C 82.480469 22.457031 82.570312 22.550781 82.570312 22.664062 L 82.570312 24.300781 L 84.5625 24.300781 C 84.675781 24.300781 84.769531 24.390625 84.769531 24.503906 C 84.769531 24.617188 84.675781 24.710938 84.5625 24.710938 L 82.367188 24.710938 C 82.25 24.710938 82.160156 24.617188 82.160156 24.503906 Z M 82.367188 27.898438 C 84.242188 27.898438 85.761719 26.378906 85.761719 24.503906 C 85.761719 22.628906 84.242188 21.109375 82.367188 21.109375 C 80.492188 21.109375 78.96875 22.628906 78.96875 24.503906 C 78.96875 26.378906 80.492188 27.898438 82.367188 27.898438 " fill-opacity="1" fill-rule="nonzero"/><path fill="#1d2c54" d="M 68.792969 50 L 70.460938 50 L 70.460938 50.570312 L 69.367188 50.570312 L 69.367188 51.121094 L 70.460938 51.121094 L 70.460938 51.683594 L 69.367188 51.683594 L 69.367188 52.488281 L 70.460938 52.488281 L 70.460938 53.058594 L 68.792969 53.058594 L 68.792969 50 " fill-opacity="1" fill-rule="nonzero"/><path fill="#1d2c54" d="M 70.738281 50.796875 L 71.398438 50.796875 L 71.84375 51.414062 L 72.289062 50.796875 L 72.9375 50.796875 L 72.171875 51.859375 L 73.039062 53.058594 L 72.378906 53.058594 L 71.84375 52.316406 L 71.304688 53.058594 L 70.660156 53.058594 L 71.519531 51.871094 L 70.738281 50.796875 " fill-opacity="1" fill-rule="nonzero"/><path fill="#1d2c54" d="M 74.488281 51.261719 C 74.308594 51.261719 74.164062 51.324219 74.046875 51.445312 C 73.925781 51.566406 73.867188 51.726562 73.867188 51.925781 C 73.867188 52.125 73.925781 52.285156 74.046875 52.410156 C 74.164062 52.535156 74.308594 52.597656 74.488281 52.597656 C 74.664062 52.597656 74.808594 52.535156 74.925781 52.40625 C 75.046875 52.28125 75.105469 52.121094 75.105469 51.925781 C 75.105469 51.730469 75.046875 51.574219 74.929688 51.449219 C 74.8125 51.324219 74.667969 51.261719 74.488281 51.261719 Z M 73.894531 50.796875 L 73.894531 51.046875 C 73.992188 50.941406 74.105469 50.867188 74.226562 50.8125 C 74.34375 50.761719 74.472656 50.738281 74.609375 50.738281 C 74.902344 50.738281 75.152344 50.847656 75.359375 51.074219 C 75.566406 51.296875 75.671875 51.582031 75.671875 51.933594 C 75.671875 52.269531 75.5625 52.550781 75.351562 52.777344 C 75.136719 53.003906 74.882812 53.117188 74.589844 53.117188 C 74.460938 53.117188 74.339844 53.09375 74.226562 53.046875 C 74.113281 53 74.003906 52.925781 73.894531 52.820312 L 73.894531 53.886719 L 73.328125 53.886719 L 73.328125 50.796875 L 73.894531 50.796875 " fill-opacity="1" fill-rule="nonzero"/><path fill="#1d2c54" d="M 77.839844 51.644531 C 77.804688 51.519531 77.730469 51.414062 77.617188 51.335938 C 77.507812 51.257812 77.378906 51.21875 77.234375 51.21875 C 77.078125 51.21875 76.9375 51.261719 76.816406 51.351562 C 76.742188 51.40625 76.675781 51.503906 76.609375 51.644531 Z M 78.410156 52.09375 L 76.585938 52.09375 C 76.613281 52.253906 76.679688 52.382812 76.796875 52.476562 C 76.90625 52.570312 77.054688 52.617188 77.234375 52.617188 C 77.445312 52.617188 77.628906 52.542969 77.777344 52.394531 L 78.257812 52.621094 C 78.140625 52.789062 77.996094 52.914062 77.832031 52.996094 C 77.664062 53.078125 77.464844 53.117188 77.238281 53.117188 C 76.882812 53.117188 76.59375 53.007812 76.371094 52.78125 C 76.144531 52.558594 76.035156 52.277344 76.035156 51.941406 C 76.035156 51.59375 76.144531 51.308594 76.371094 51.082031 C 76.59375 50.851562 76.871094 50.738281 77.203125 50.738281 C 77.5625 50.738281 77.851562 50.851562 78.074219 51.082031 C 78.296875 51.308594 78.410156 51.609375 78.410156 51.984375 L 78.410156 52.09375 " fill-opacity="1" fill-rule="nonzero"/><path fill="#1d2c54" d="M 78.734375 50.796875 L 79.222656 50.796875 L 79.222656 51.082031 C 79.273438 50.96875 79.34375 50.882812 79.429688 50.824219 C 79.519531 50.765625 79.617188 50.738281 79.71875 50.738281 C 79.792969 50.738281 79.867188 50.757812 79.949219 50.796875 L 79.773438 51.285156 C 79.707031 51.25 79.652344 51.234375 79.605469 51.234375 C 79.519531 51.234375 79.445312 51.289062 79.386719 51.398438 C 79.328125 51.503906 79.296875 51.71875 79.296875 52.03125 L 79.300781 52.144531 L 79.300781 53.058594 L 78.734375 53.058594 L 78.734375 50.796875 " fill-opacity="1" fill-rule="nonzero"/><path fill="#1d2c54" d="M 80.296875 49.960938 L 80.867188 49.960938 L 80.867188 50.796875 L 81.203125 50.796875 L 81.203125 51.285156 L 80.867188 51.285156 L 80.867188 53.058594 L 80.296875 53.058594 L 80.296875 51.285156 L 80.007812 51.285156 L 80.007812 50.796875 L 80.296875 50.796875 L 80.296875 49.960938 " fill-opacity="1" fill-rule="nonzero"/><g clip-path="url(#d2297d92c8)"><g clip-path="url(#a0f1a6e328)"><path fill="#ff004d" d="M 59.65625 47.527344 L 63.90625 47.527344 L 63.90625 51.574219 L 59.65625 51.574219 Z M 59.65625 47.527344 " fill-opacity="1" fill-rule="nonzero"/></g></g></svg>